<?xml version="1.0" encoding="UTF-8" standalone="no"?>
<!-- Created with Inkscape (http://www.inkscape.org/) -->

<svg
   xmlns:dc="http://purl.org/dc/elements/1.1/"
   xmlns:cc="http://creativecommons.org/ns#"
   xmlns:rdf="http://www.w3.org/1999/02/22-rdf-syntax-ns#"
   xmlns:svg="http://www.w3.org/2000/svg"
   xmlns="http://www.w3.org/2000/svg"
   xmlns:sodipodi="http://sodipodi.sourceforge.net/DTD/sodipodi-0.dtd"
   xmlns:inkscape="http://www.inkscape.org/namespaces/inkscape"
   width="411.06058"
   height="92.49913"
   id="svg4087"
   version="1.1"
   inkscape:version="0.48.2 r9819"
   sodipodi:docname="cat_functor.svg">
  <defs
     id="defs4089" />
  <sodipodi:namedview
     id="base"
     pagecolor="#ffffff"
     bordercolor="#666666"
     borderopacity="1.0"
     inkscape:pageopacity="0.0"
     inkscape:pageshadow="2"
     inkscape:zoom="2.0149341"
     inkscape:cx="216.02672"
     inkscape:cy="37.375838"
     inkscape:document-units="px"
     inkscape:current-layer="layer1"
     showgrid="false"
     fit-margin-left="1"
     fit-margin-top="1"
     fit-margin-bottom="1"
     fit-margin-right="1"
     inkscape:window-width="1280"
     inkscape:window-height="752"
     inkscape:window-x="0"
     inkscape:window-y="0"
     inkscape:window-maximized="0" />
  <metadata
     id="metadata4092">
    <rdf:RDF>
      <cc:Work
         rdf:about="">
        <dc:format>image/svg+xml</dc:format>
        <dc:type
           rdf:resource="http://purl.org/dc/dcmitype/StillImage" />
        <dc:title />
      </cc:Work>
    </rdf:RDF>
  </metadata>
  <g
     inkscape:label="Layer 1"
     inkscape:groupmode="layer"
     id="layer1"
     transform="translate(-47.324847,-911.44304)">
    <path
       inkscape:connector-curvature="0"
       style="fill:#000000;fill-opacity:1;stroke:none"
       d="m 66.834986,965.19906 5.0586,0 0.5664,3.63281 1.58204,0 -1.875,-12.44141 -1.5625,0 -7.16797,12.44141 1.32812,0 2.07031,-3.63281 z m 4.92188,-1.01563 -4.33594,0 1.95313,-3.45704 c 0.23437,-0.41015 1.36718,-2.48046 1.58203,-2.98827 l 0.0195,0 c -0.039,0.48827 0.13673,1.67969 0.19531,2.20702 l 0.58594,4.23829 z m 0,0"
       id="path3616" />
    <path
       inkscape:connector-curvature="0"
       style="fill:#000000;fill-opacity:1;stroke:none"
       d="m 126.01509,941.50164 -2.65625,12.44141 4.62892,0 c 2.8125,0 5.15625,-1.99219 5.15625,-3.86719 0,-1.26954 -1.11329,-2.36329 -2.8125,-2.63672 1.75781,-0.41015 3.55468,-1.62109 3.55468,-3.26172 0,-1.52343 -1.5625,-2.67578 -3.73047,-2.67578 l -4.14063,0 z m 0.29298,5.42968 0.95702,-4.43358 2.1875,0 c 1.73829,0 3.04688,0.78125 3.04688,1.875 0,1.23046 -1.77734,2.55858 -3.96484,2.55858 l -2.22656,0 z m -1.26954,6.01563 1.03516,-4.9414 2.40234,0 c 1.99219,0 3.22266,0.99609 3.22266,2.1875 0,1.44531 -1.875,2.7539 -3.98437,2.7539 l -2.67579,0 z m 0,0"
       id="path3612" />
    <path
       inkscape:connector-curvature="0"
       style="fill:#000000;fill-opacity:1;stroke:none"
       d="m 184.26318,959.2821 c -1.17188,-0.48829 -2.10938,-0.625 -3.16406,-0.625 -3.96485,0 -7.20704,4.17969 -7.20704,7.94921 0,2.75391 1.83594,4.86329 4.29687,4.86329 1.9336,0 2.63673,-0.19532 3.86719,-0.97656 l 0.15625,-1.25 c -1.21094,0.80077 -1.97265,1.11327 -3.49609,1.11327 -2.22656,0 -3.26172,-1.83594 -3.26172,-3.86719 0,-3.10546 2.42187,-6.69921 5.44922,-6.69921 1.21094,0 1.95313,0.3125 2.79297,0.95703 l 0.56641,-1.46484 z m 0,0"
       id="path3608" />
    <path
       inkscape:connector-curvature="0"
       style="fill:#000000;fill-opacity:1;stroke:none"
       d="m 68.547201,922.5407 c 0,-0.15625 -0.13673,-0.21485 -0.21485,-0.21485 -0.42969,0 -0.9375,1.15235 -3.47657,1.15235 -3.14452,0 -4.04296,-1.9336 -4.04296,-4.60938 0,-2.67578 0.95703,-4.60937 3.90625,-4.60937 1.60156,0 2.4414,0.625 2.92969,1.01562 0.0976,0.0977 0.15625,0.15625 0.27344,0.15625 0.0781,0 0.17577,-0.0781 0.17577,-0.15625 l 0.3711,-1.99218 c 0.0195,-0.0781 0,-0.13672 -0.13672,-0.19532 -1.07422,-0.39062 -2.16797,-0.64453 -3.55469,-0.64453 -4.375,0 -6.62109,2.12891 -6.62109,6.40625 0,4.39453 2.28515,6.42578 6.64063,6.42578 1.52343,0 2.46093,-0.21484 3.76952,-1.01562 0.15625,-0.0977 0.11713,-0.21485 0.11713,-0.21485 l -0.13672,-1.5039 z m 0,0"
       id="path3592" />
    <path
       inkscape:connector-curvature="0"
       style="fill:#000000;fill-opacity:1;stroke:none"
       d="m 284.57987,913.15419 c -0.64454,0 -0.85937,0.19531 -0.85937,0.85937 l 0,10.72266 c 0,0.64453 0.19531,0.85937 0.85937,0.85937 l 4.72656,0 c 4.375,0 5.89844,-2.61719 5.89844,-6.13281 0,-1.40625 -0.23438,-3.16406 -1.23048,-4.43359 -1.34765,-1.66016 -3.49608,-1.875 -4.66796,-1.875 l -4.72656,0 z m 1.71875,10.89843 0,-9.35547 2.28515,0 c 3.88672,0 4.04297,2.75391 4.04297,4.76563 0,2.03125 -0.19531,4.58984 -4.02343,4.58984 l -2.30469,0 z m 0,0"
       id="path3588" />
    <g
       id="g4299"
       transform="translate(33.251707,0.49629413)">
      <path
         id="path3620"
         d="m 255.6779,960.34895 5.33204,0 0.23438,-1.07423 -5.33204,0 0.97656,-4.55077 2.30469,0 c 0.21485,0 0.42969,0.0195 0.64454,0.0195 l 3.10546,0 0.23437,-1.13282 -7.59765,0 -2.63672,12.40235 1.54297,0 1.1914,-5.66406 z m 0,0"
         style="fill:#000000;fill-opacity:1;stroke:none"
         inkscape:connector-curvature="0" />
      <path
         id="path3624"
         d="m 268.46432,952.57551 c -2.69532,2.40234 -3.35938,6.03515 -3.35938,8.96484 0,3.14453 0.76171,6.66016 3.35938,8.96485 l 1.07421,0 c -0.70313,-0.64454 -1.79688,-2.03125 -2.42188,-4.0625 -0.46875,-1.60157 -0.66406,-3.26173 -0.66406,-4.90235 0,-5.27344 1.89454,-7.87109 3.08594,-8.96484 l -1.07421,0 z m 0,0"
         style="fill:#000000;fill-opacity:1;stroke:none"
         inkscape:connector-curvature="0" />
      <path
         id="path3628"
         d="m 274.41415,962.3802 5.0586,0 0.5664,3.63281 1.58204,0 -1.875,-12.44141 -1.5625,0 -7.16798,12.44141 1.32813,0 2.07031,-3.63281 z m 4.92188,-1.01563 -4.33594,0 1.95312,-3.45704 c 0.23438,-0.41015 1.36719,-2.48046 1.58204,-2.98827 l 0.0195,0 c -0.039,0.48827 0.13673,1.67969 0.19531,2.20702 l 0.58594,4.23829 z m 0,0"
         style="fill:#000000;fill-opacity:1;stroke:none"
         inkscape:connector-curvature="0" />
      <path
         id="path3632"
         d="m 284.18071,970.5052 c 2.67579,-2.40235 3.35938,-6.03517 3.35938,-8.96485 0,-3.14453 -0.76171,-6.66015 -3.35938,-8.96484 l -1.07421,0 c 0.68359,0.64452 1.77734,2.03125 2.42188,4.0625 0.46875,1.60156 0.64452,3.26171 0.64452,4.90234 0,5.27343 -1.875,7.8711 -3.0664,8.96485 l 1.07421,0 z m 0,0"
         style="fill:#000000;fill-opacity:1;stroke:none"
         inkscape:connector-curvature="0" />
    </g>
    <g
       id="g4263"
       transform="translate(32.259119,21.340648)">
      <path
         id="path3636"
         d="m 322.24619,914.68989 5.33203,0 0.23438,-1.07423 -5.33204,0 0.97656,-4.55077 2.30469,0 c 0.21485,0 0.42969,0.0195 0.64454,0.0195 l 3.10546,0 0.23438,-1.13282 -7.59765,0 -2.63673,12.40235 1.54298,0 1.1914,-5.66406 z m 0,0"
         style="fill:#000000;fill-opacity:1;stroke:none"
         inkscape:connector-curvature="0" />
      <path
         id="path3640"
         d="m 335.03261,906.91645 c -2.69531,2.40234 -3.35937,6.03515 -3.35937,8.96484 0,3.14453 0.76171,6.66016 3.35937,8.96485 l 1.07421,0 c -0.70312,-0.64454 -1.79687,-2.03125 -2.42187,-4.0625 -0.46875,-1.60157 -0.66406,-3.26173 -0.66406,-4.90235 0,-5.27344 1.89453,-7.87109 3.08593,-8.96484 l -1.07421,0 z m 0,0"
         style="fill:#000000;fill-opacity:1;stroke:none"
         inkscape:connector-curvature="0" />
      <path
         id="path3644"
         d="m 341.41212,907.91254 -2.65625,12.44141 4.62892,0 c 2.8125,0 5.15625,-1.99219 5.15625,-3.86719 0,-1.26954 -1.11329,-2.36329 -2.8125,-2.63672 1.75781,-0.41015 3.55468,-1.62109 3.55468,-3.26172 0,-1.52343 -1.5625,-2.67578 -3.73047,-2.67578 l -4.14063,0 z m 0.29298,5.42968 0.95702,-4.43358 2.1875,0 c 1.73829,0 3.04688,0.78125 3.04688,1.875 0,1.23046 -1.77734,2.55858 -3.96484,2.55858 l -2.22656,0 z m -1.26954,6.01563 1.03516,-4.9414 2.40234,0 c 1.99219,0 3.22266,0.99609 3.22266,2.1875 0,1.44531 -1.875,2.7539 -3.98437,2.7539 l -2.67579,0 z m 0,0"
         style="fill:#000000;fill-opacity:1;stroke:none"
         inkscape:connector-curvature="0" />
      <path
         id="path3648"
         d="m 352.29775,924.84614 c 2.67578,-2.40235 3.35937,-6.03517 3.35937,-8.96485 0,-3.14453 -0.76171,-6.66015 -3.35937,-8.96484 l -1.07422,0 c 0.68359,0.64452 1.77734,2.03125 2.42188,4.0625 0.46875,1.60156 0.64452,3.26171 0.64452,4.90234 0,5.27343 -1.875,7.8711 -3.0664,8.96485 l 1.07422,0 z m 0,0"
         style="fill:#000000;fill-opacity:1;stroke:none"
         inkscape:connector-curvature="0" />
    </g>
    <g
       id="g3768"
       transform="matrix(1.2499999,0,0,1.2499999,162.86603,807.98783)">
      <path
         id="path3652"
         d="m 199.86537,131.41776 4.26563,0 0.1875,-0.85938 -4.26563,0 0.78125,-3.64062 1.84375,0 c 0.17188,0 0.34375,0.0156 0.51563,0.0156 l 2.48437,0 0.1875,-0.90625 -6.07812,0 -2.10938,9.92188 1.23438,0 0.95312,-4.53125 z m 0,0"
         style="fill:#000000;fill-opacity:1;stroke:none"
         inkscape:connector-curvature="0" />
      <path
         id="path3656"
         d="m 210.0945,125.19901 c -2.15625,1.92187 -2.6875,4.82812 -2.6875,7.17187 0,2.51563 0.60937,5.32813 2.6875,7.17188 l 0.85937,0 c -0.5625,-0.51563 -1.4375,-1.625 -1.9375,-3.25 -0.375,-1.28125 -0.53125,-2.60938 -0.53125,-3.92188 0,-4.21875 1.51563,-6.29687 2.46875,-7.17187 l -0.85937,0 z m 0,0"
         style="fill:#000000;fill-opacity:1;stroke:none"
         inkscape:connector-curvature="0" />
      <path
         id="path3660"
         d="m 221.90125,126.32401 c -0.9375,-0.39063 -1.6875,-0.5 -2.53125,-0.5 -3.17188,0 -5.76563,3.34375 -5.76563,6.35937 0,2.20313 1.46875,3.89063 3.4375,3.89063 1.54688,0 2.10938,-0.15625 3.09375,-0.78125 l 0.125,-1 c -0.96875,0.64062 -1.57812,0.89062 -2.79687,0.89062 -1.78125,0 -2.60938,-1.46875 -2.60938,-3.09375 0,-2.48437 1.9375,-5.35937 4.35938,-5.35937 0.96875,0 1.5625,0.25 2.23437,0.76562 l 0.45313,-1.17187 z m 0,0"
         style="fill:#000000;fill-opacity:1;stroke:none"
         inkscape:connector-curvature="0" />
      <path
         id="path3664"
         d="m 224.08763,139.54276 c 2.14063,-1.92188 2.6875,-4.82813 2.6875,-7.17188 0,-2.51562 -0.60937,-5.32812 -2.6875,-7.17187 l -0.85937,0 c 0.54687,0.51562 1.42187,1.625 1.9375,3.25 0.375,1.28125 0.51562,2.60937 0.51562,3.92187 0,4.21875 -1.5,6.29688 -2.45312,7.17188 l 0.85937,0 z m 0,0"
         style="fill:#000000;fill-opacity:1;stroke:none"
         inkscape:connector-curvature="0" />
    </g>
    <g
       id="g4331"
       transform="translate(-12.407354,-3.9703532)">
      <path
         id="path3688"
         d="m 350.68838,964.01833 4.43358,0 0.19532,-0.89843 -4.43359,0 0.80077,-3.78907 1.9336,0 c 0.17578,0 0.35157,0.0195 0.52734,0.0195 l 2.59766,0 0.19532,-0.9375 -6.34767,0 -2.1875,10.33204 1.28907,0 0.9961,-4.72656 z m 0,0"
         style="fill:#000000;fill-opacity:1;stroke:none"
         inkscape:connector-curvature="0" />
      <path
         id="path3692"
         d="m 359.33414,957.53396 c -2.22656,2.01171 -2.79296,5.03906 -2.79296,7.48046 0,2.61719 0.64452,5.54687 2.79296,7.48047 l 0.89844,0 c -0.5664,-0.54687 -1.48438,-1.69922 -2.01172,-3.39843 -0.41016,-1.32813 -0.54687,-2.71485 -0.54687,-4.0625 0,-4.41406 1.5625,-6.5625 2.55859,-7.5 l -0.89844,0 z m 0,0"
         style="fill:#000000;fill-opacity:1;stroke:none"
         inkscape:connector-curvature="0" />
      <path
         id="path3696"
         d="m 363.8679,962.98317 1.60156,0 0.17579,-0.8789 -1.6211,0 0.39063,-1.83594 c 0.23437,-1.03516 1.25,-1.15235 1.58203,-1.15235 0.27344,0 0.68359,0.0586 1.11328,0.25392 l 0.21485,-0.9961 c -0.0781,-0.0195 -0.54688,-0.15625 -1.13282,-0.15625 -1.40624,0 -2.63672,1.11328 -2.92968,2.48047 l -0.3125,1.40625 -1.09375,0 -0.17579,0.8789 1.07423,0 -1.21094,5.76172 1.09375,0 1.23046,-5.76172 z m 0,0"
         style="fill:#000000;fill-opacity:1;stroke:none"
         inkscape:connector-curvature="0" />
      <path
         id="path3700"
         d="m 369.45227,972.49489 c 2.2461,-1.99218 2.8125,-5.03906 2.8125,-7.46093 0,-2.63673 -0.64452,-5.56641 -2.8125,-7.5 l -0.89843,0 c 0.58593,0.54687 1.50391,1.69921 2.03125,3.39844 0.39062,1.32812 0.54687,2.71483 0.54687,4.08202 0,4.39454 -1.5625,6.5625 -2.57812,7.48047 l 0.89843,0 z m 0,0"
         style="fill:#000000;fill-opacity:1;stroke:none"
         inkscape:connector-curvature="0" />
    </g>
    <g
       id="g4341"
       transform="translate(-12.407354,-3.9703532)">
      <path
         id="path3704"
         d="m 414.39428,949.1295 4.43359,0 0.19531,-0.89843 -4.43358,0 0.80077,-3.78907 1.9336,0 c 0.17578,0 0.35156,0.0195 0.52734,0.0195 l 2.59766,0 0.19531,-0.9375 -6.34766,0 -2.1875,10.33204 1.28906,0 0.9961,-4.72656 z m 0,0"
         style="fill:#000000;fill-opacity:1;stroke:none"
         inkscape:connector-curvature="0" />
      <path
         id="path3708"
         d="m 423.04006,942.64513 c -2.22656,2.01171 -2.79296,5.03906 -2.79296,7.48046 0,2.61719 0.64452,5.54687 2.79296,7.48047 l 0.89844,0 c -0.5664,-0.54687 -1.48438,-1.69922 -2.01172,-3.39843 -0.41016,-1.32813 -0.54687,-2.71485 -0.54687,-4.0625 0,-4.41406 1.5625,-6.5625 2.55859,-7.5 l -0.89844,0 z m 0,0"
         style="fill:#000000;fill-opacity:1;stroke:none"
         inkscape:connector-curvature="0" />
      <path
         id="path3712"
         d="m 432.14413,947.07872 c -0.54687,0 -1.34765,0.0586 -2.40233,0.46875 -0.29298,-0.27344 -0.76173,-0.46875 -1.28907,-0.46875 -1.50391,0 -2.91016,1.46485 -2.91016,2.92968 0,0.52735 0.23438,0.95704 0.23438,0.95704 -0.2539,0.2539 -0.74219,0.8789 -0.74219,1.66015 0,0.44922 0.15625,0.72266 0.17579,0.76172 -0.95704,0.50782 -1.28907,1.30859 -1.28907,1.79688 0,0.91796 1.07422,1.73827 2.85157,1.73827 1.5625,0 3.71093,-0.76171 3.71093,-2.46093 0,-0.95703 -0.60547,-1.66015 -2.61718,-1.66015 l -1.26954,0 c -0.29296,0 -0.70313,0 -0.70313,-0.58594 0,-0.17579 0,-0.41016 0.29298,-0.74219 0.23437,0.19531 0.66406,0.42969 1.25,0.42969 1.48437,0 2.91015,-1.44531 2.91015,-2.92969 0,-0.54687 -0.2539,-0.97656 -0.2539,-0.9961 0.0586,0.039 0.0781,0.039 0.0976,0.039 0.0781,0 0.52735,-0.0586 1.15235,-0.0586 0.3125,0 0.42969,0 0.78125,0.0195 l 0.0195,-0.89844 z m -4.53125,4.00391 c -0.625,0 -1.03515,-0.3711 -1.03515,-1.09375 0,-0.87891 0.5664,-2.08985 1.69922,-2.08985 0.39062,0 1.03516,0.17579 1.03516,1.09375 0,0.9375 -0.58594,2.08985 -1.69923,2.08985 z m 0.0195,2.8125 c 0.99609,0 1.77734,0.19531 1.77734,0.8789 0,0.76172 -1.23046,1.32812 -2.46094,1.32812 -1.17187,0 -1.97265,-0.44921 -1.97265,-1.03515 0,-0.23437 0.21484,-1.17187 1.36719,-1.17187 l 1.28906,0 z m 0,0"
         style="fill:#000000;fill-opacity:1;stroke:none"
         inkscape:connector-curvature="0" />
      <path
         id="path3716"
         d="m 434.39568,957.60606 c 2.2461,-1.99218 2.8125,-5.03906 2.8125,-7.46093 0,-2.63673 -0.64452,-5.56641 -2.8125,-7.5 l -0.89844,0 c 0.58594,0.54687 1.50392,1.69921 2.03125,3.39844 0.39063,1.32812 0.54688,2.71483 0.54688,4.08202 0,4.39454 -1.5625,6.5625 -2.57813,7.48047 l 0.89844,0 z m 0,0"
         style="fill:#000000;fill-opacity:1;stroke:none"
         inkscape:connector-curvature="0" />
    </g>
    <path
       inkscape:connector-curvature="0"
       style="fill:#000000;fill-opacity:1;stroke:none"
       d="m 103.34458,963.47945 1.60156,0 0.17578,-0.8789 -1.62109,0 0.39062,-1.83594 c 0.23438,-1.03516 1.25,-1.15235 1.58204,-1.15235 0.27343,0 0.68358,0.0586 1.11327,0.25392 l 0.21485,-0.9961 c -0.0781,-0.0195 -0.54687,-0.15625 -1.13281,-0.15625 -1.40625,0 -2.63672,1.11328 -2.92969,2.48047 l -0.3125,1.40625 -1.09375,0 -0.17578,0.8789 1.07422,0 -1.21094,5.76173 1.09375,0 1.23047,-5.76173 z m 0,0"
       id="path3676" />
    <path
       inkscape:connector-curvature="0"
       style="fill:#000000;fill-opacity:1;stroke:none"
       d="m 162.51183,943.10836 c -0.54687,0 -1.34765,0.0586 -2.40233,0.46875 -0.29298,-0.27344 -0.76173,-0.46875 -1.28907,-0.46875 -1.50391,0 -2.91016,1.46485 -2.91016,2.92968 0,0.52735 0.23438,0.95704 0.23438,0.95704 -0.2539,0.2539 -0.74219,0.8789 -0.74219,1.66015 0,0.44923 0.15625,0.72266 0.17579,0.76173 -0.95704,0.50781 -1.28907,1.30858 -1.28907,1.79687 0,0.91796 1.07422,1.73828 2.85157,1.73828 1.5625,0 3.71093,-0.76172 3.71093,-2.46094 0,-0.95703 -0.60547,-1.66015 -2.61718,-1.66015 l -1.26954,0 c -0.29296,0 -0.70313,0 -0.70313,-0.58594 0,-0.17579 0,-0.41016 0.29298,-0.74219 0.23437,0.19532 0.66406,0.42969 1.25,0.42969 1.48437,0 2.91015,-1.44531 2.91015,-2.92969 0,-0.54687 -0.2539,-0.97656 -0.2539,-0.9961 0.0586,0.039 0.0781,0.039 0.0976,0.039 0.0781,0 0.52735,-0.0586 1.15235,-0.0586 0.3125,0 0.42969,0 0.78125,0.0195 l 0.0195,-0.89844 z m -4.53125,4.00391 c -0.625,0 -1.03515,-0.3711 -1.03515,-1.09375 0,-0.87891 0.5664,-2.08985 1.69922,-2.08985 0.39062,0 1.03516,0.17579 1.03516,1.09375 0,0.9375 -0.58594,2.08985 -1.69923,2.08985 z m 0.0195,2.8125 c 0.99609,0 1.77734,0.19531 1.77734,0.8789 0,0.76172 -1.23046,1.32812 -2.46094,1.32812 -1.17187,0 -1.97265,-0.44921 -1.97265,-1.03515 0,-0.23437 0.21484,-1.17187 1.36719,-1.17187 l 1.28906,0 z m 0,0"
       id="path3672" />
    <path
       style="fill:none;stroke:#000000;stroke-width:0.83960366px;stroke-linecap:butt;stroke-linejoin:miter;stroke-opacity:1"
       d="m 123.652,925.78188 c -21.1044,-5.82735 -70.826164,8.10203 -74.639361,33.00039 -7.019973,45.83703 126.052321,55.65003 143.669981,17.30508 23.9816,-52.19613 -79.72057,-77.18962 -106.997464,-42.65904"
       id="path4273"
       inkscape:connector-curvature="0" />
    <path
       style="fill:none;stroke:#000000;stroke-width:0.89016008px;stroke-linecap:butt;stroke-linejoin:miter;stroke-opacity:1"
       d="m 364.50379,919.40572 c -22.79839,-4.83377 -87.05111,7.42867 -83.17734,42.97505 6.58458,60.42123 236.51818,52.11463 160.06017,-21.70458 -14.79232,-14.28184 -29.08146,-22.13865 -50.80562,-22.13865 -19.15763,0 -34.04239,-4.46227 -52.15444,0.43409"
       id="path4275"
       inkscape:connector-curvature="0"
       sodipodi:nodetypes="csssc" />
    <path
       inkscape:connector-curvature="0"
       style="fill:#000000;fill-opacity:1;stroke:none"
       d="m 239.80872,948.18127 5.33204,0 0.23438,-1.07423 -5.33204,0 0.97656,-4.55077 2.30469,0 c 0.21485,0 0.42969,0.0195 0.64454,0.0195 l 3.10546,0 0.23437,-1.13282 -7.59765,0 -2.63672,12.40235 1.54297,0 1.1914,-5.66406 z m 0,0"
       id="path3620-4" />
    <path
       style="fill:none;stroke:#000000;stroke-width:1px;stroke-linecap:butt;stroke-linejoin:miter;stroke-opacity:1"
       d="m 80.399651,962.53294 c 11.35166,0.79403 32.481519,-10.10269 35.236879,-11.41476"
       id="path4307"
       inkscape:connector-curvature="0" />
    <path
       style="fill:none;stroke:#000000;stroke-width:1px;stroke-linecap:butt;stroke-linejoin:miter;stroke-opacity:1"
       d="m 110.67359,949.62929 c 15.26558,-0.8072 0.48302,6.76229 0.49629,6.94812"
       id="path4309"
       inkscape:connector-curvature="0" />
    <path
       style="fill:none;stroke:#000000;stroke-width:1px;stroke-linecap:butt;stroke-linejoin:miter;stroke-opacity:1"
       d="m 143.42901,948.63671 c 5.35331,6.77303 19.1946,11.94597 22.82953,13.39994"
       id="path4311"
       inkscape:connector-curvature="0" />
    <path
       style="fill:none;stroke:#000000;stroke-width:1px;stroke-linecap:butt;stroke-linejoin:miter;stroke-opacity:1"
       d="m 165.26595,957.07371 c 6.66013,6.3924 -1.50794,5.79645 -6.45182,7.44441"
       id="path4313"
       inkscape:connector-curvature="0" />
    <path
       style="fill:none;stroke:#000000;stroke-width:1px;stroke-linecap:butt;stroke-linejoin:miter;stroke-opacity:1"
       d="m 324.08008,958.56259 c 6.84845,-2.46193 19.05646,-11.56821 23.32582,-14.88882"
       id="path4315"
       inkscape:connector-curvature="0"
       sodipodi:nodetypes="cc" />
    <path
       style="fill:none;stroke:#000000;stroke-width:1px;stroke-linecap:butt;stroke-linejoin:miter;stroke-opacity:1"
       d="m 343.93185,943.67377 c 9.80276,-5.09238 3.82905,4.30769 3.97035,4.46665"
       id="path4317"
       inkscape:connector-curvature="0" />
    <path
       style="fill:none;stroke:#000000;stroke-width:1px;stroke-linecap:butt;stroke-linejoin:miter;stroke-opacity:1"
       d="m 390.0872,940.696 c 5.64425,8.73302 13.84253,16.324 17.86659,20.34806"
       id="path4319"
       inkscape:connector-curvature="0"
       sodipodi:nodetypes="cc" />
    <path
       style="fill:none;stroke:#000000;stroke-width:1px;stroke-linecap:butt;stroke-linejoin:miter;stroke-opacity:1"
       d="m 407.4575,955.08853 c 7.63943,12.22177 -4.92956,4.92956 -6.94812,6.94812"
       id="path4321"
       inkscape:connector-curvature="0" />
    <path
       style="fill:none;stroke:#000000;stroke-width:1px;stroke-linecap:butt;stroke-linejoin:miter;stroke-opacity:1"
       d="m 204.47319,963.02924 c 18.55162,-6.79809 56.78174,1.45336 67.9923,-0.4963"
       id="path4323"
       inkscape:connector-curvature="0" />
    <path
       style="fill:none;stroke:#000000;stroke-width:1px;stroke-linecap:butt;stroke-linejoin:miter;stroke-opacity:1"
       d="m 264.0359,957.08112 c 20.67726,4.1454 0.23648,12.24432 -3.47406,14.39253"
       id="path4325"
       inkscape:connector-curvature="0" />
  </g>
</svg>
