<?xml version="1.0" encoding="UTF-8" standalone="no"?>
<!-- Created with Inkscape (http://www.inkscape.org/) -->

<svg
   xmlns:dc="http://purl.org/dc/elements/1.1/"
   xmlns:cc="http://creativecommons.org/ns#"
   xmlns:rdf="http://www.w3.org/1999/02/22-rdf-syntax-ns#"
   xmlns:svg="http://www.w3.org/2000/svg"
   xmlns="http://www.w3.org/2000/svg"
   xmlns:sodipodi="http://sodipodi.sourceforge.net/DTD/sodipodi-0.dtd"
   xmlns:inkscape="http://www.inkscape.org/namespaces/inkscape"
   width="319.10608"
   height="72.310532"
   id="svg4087"
   version="1.1"
   inkscape:version="0.48.2 r9819"
   sodipodi:docname="cat_functor.svg">
  <defs
     id="defs4089" />
  <sodipodi:namedview
     id="base"
     pagecolor="#ffffff"
     bordercolor="#666666"
     borderopacity="1.0"
     inkscape:pageopacity="0.0"
     inkscape:pageshadow="2"
     inkscape:zoom="2.0149341"
     inkscape:cx="154.78853"
     inkscape:cy="28.320563"
     inkscape:document-units="px"
     inkscape:current-layer="layer1"
     showgrid="false"
     fit-margin-left="1"
     fit-margin-top="1"
     fit-margin-bottom="1"
     fit-margin-right="1"
     inkscape:window-width="1280"
     inkscape:window-height="752"
     inkscape:window-x="0"
     inkscape:window-y="0"
     inkscape:window-maximized="0" />
  <metadata
     id="metadata4092">
    <rdf:RDF>
      <cc:Work
         rdf:about="">
        <dc:format>image/svg+xml</dc:format>
        <dc:type
           rdf:resource="http://purl.org/dc/dcmitype/StillImage" />
        <dc:title></dc:title>
      </cc:Work>
    </rdf:RDF>
  </metadata>
  <g
     inkscape:label="Layer 1"
     inkscape:groupmode="layer"
     id="layer1"
     transform="translate(-108.56303,-922.57636)">
    <path
       inkscape:connector-curvature="0"
       style="fill:#000000;fill-opacity:1;stroke:none"
       d="m 122.41993,965.69537 5.0586,0 0.5664,3.63281 1.58204,0 -1.875,-12.44141 -1.5625,0 -7.16797,12.44141 1.32812,0 2.07031,-3.63281 z m 4.92188,-1.01563 -4.33594,0 1.95313,-3.45704 c 0.23437,-0.41015 1.36718,-2.48046 1.58203,-2.98827 l 0.0195,0 c -0.039,0.48827 0.13673,1.67969 0.19531,2.20702 l 0.58594,4.23829 z m 0,0"
       id="path3616" />
    <path
       inkscape:connector-curvature="0"
       style="fill:#000000;fill-opacity:1;stroke:none"
       d="m 174.65191,956.88676 -2.65625,12.44141 4.62892,0 c 2.8125,0 5.15625,-1.99219 5.15625,-3.86719 0,-1.26954 -1.11329,-2.36329 -2.8125,-2.63672 1.75781,-0.41015 3.55468,-1.62109 3.55468,-3.26172 0,-1.52343 -1.5625,-2.67578 -3.73047,-2.67578 l -4.14063,0 z m 0.29298,5.42968 0.95702,-4.43358 2.1875,0 c 1.73829,0 3.04688,0.78125 3.04688,1.875 0,1.23046 -1.77734,2.55858 -3.96484,2.55858 l -2.22656,0 z m -1.26954,6.01563 1.03516,-4.9414 2.40234,0 c 1.99219,0 3.22266,0.99609 3.22266,2.1875 0,1.44531 -1.875,2.7539 -3.98437,2.7539 l -2.67579,0 z m 0,0"
       id="path3612" />
    <path
       inkscape:connector-curvature="0"
       style="fill:#000000;fill-opacity:1;stroke:none"
       d="m 124.13214,935.44435 c 0,-0.15625 -0.13673,-0.21485 -0.21485,-0.21485 -0.42969,0 -0.9375,1.15235 -3.47657,1.15235 -3.14452,0 -4.04296,-1.9336 -4.04296,-4.60938 0,-2.67578 0.95703,-4.60937 3.90625,-4.60937 1.60156,0 2.4414,0.625 2.92969,1.01562 0.0976,0.0977 0.15625,0.15625 0.27344,0.15625 0.0781,0 0.17577,-0.0781 0.17577,-0.15625 l 0.3711,-1.99218 c 0.0195,-0.0781 0,-0.13672 -0.13672,-0.19532 -1.07422,-0.39062 -2.16797,-0.64453 -3.55469,-0.64453 -4.375,0 -6.62109,2.12891 -6.62109,6.40625 0,4.39453 2.28515,6.42578 6.64063,6.42578 1.52343,0 2.46093,-0.21484 3.76952,-1.01562 0.15625,-0.0977 0.11713,-0.21485 0.11713,-0.21485 l -0.13672,-1.5039 z m 0,0"
       id="path3592" />
    <path
       inkscape:connector-curvature="0"
       style="fill:#000000;fill-opacity:1;stroke:none"
       d="m 290.53539,923.57636 c -0.64454,0 -0.85937,0.19531 -0.85937,0.85937 l 0,10.72266 c 0,0.64453 0.19531,0.85937 0.85937,0.85937 l 4.72656,0 c 4.375,0 5.89844,-2.61719 5.89844,-6.13281 0,-1.40625 -0.23438,-3.16406 -1.23048,-4.43359 -1.34765,-1.66016 -3.49608,-1.875 -4.66796,-1.875 l -4.72656,0 z m 1.71875,10.89843 0,-9.35547 2.28515,0 c 3.88672,0 4.04297,2.75391 4.04297,4.76563 0,2.03125 -0.19531,4.58984 -4.02343,4.58984 l -2.30469,0 z m 0,0"
       id="path3588" />
    <g
       id="g4299"
       transform="translate(42.681296,-1.4888824)">
      <path
         id="path3620"
         d="m 255.6779,960.34895 5.33204,0 0.23438,-1.07423 -5.33204,0 0.97656,-4.55077 2.30469,0 c 0.21485,0 0.42969,0.0195 0.64454,0.0195 l 3.10546,0 0.23437,-1.13282 -7.59765,0 -2.63672,12.40235 1.54297,0 1.1914,-5.66406 z m 0,0"
         style="fill:#000000;fill-opacity:1;stroke:none"
         inkscape:connector-curvature="0" />
      <path
         id="path3624"
         d="m 268.46432,952.57551 c -2.69532,2.40234 -3.35938,6.03515 -3.35938,8.96484 0,3.14453 0.76171,6.66016 3.35938,8.96485 l 1.07421,0 c -0.70313,-0.64454 -1.79688,-2.03125 -2.42188,-4.0625 -0.46875,-1.60157 -0.66406,-3.26173 -0.66406,-4.90235 0,-5.27344 1.89454,-7.87109 3.08594,-8.96484 l -1.07421,0 z m 0,0"
         style="fill:#000000;fill-opacity:1;stroke:none"
         inkscape:connector-curvature="0" />
      <path
         id="path3628"
         d="m 274.41415,962.3802 5.0586,0 0.5664,3.63281 1.58204,0 -1.875,-12.44141 -1.5625,0 -7.16798,12.44141 1.32813,0 2.07031,-3.63281 z m 4.92188,-1.01563 -4.33594,0 1.95312,-3.45704 c 0.23438,-0.41015 1.36719,-2.48046 1.58204,-2.98827 l 0.0195,0 c -0.039,0.48827 0.13673,1.67969 0.19531,2.20702 l 0.58594,4.23829 z m 0,0"
         style="fill:#000000;fill-opacity:1;stroke:none"
         inkscape:connector-curvature="0" />
      <path
         id="path3632"
         d="m 284.18071,970.5052 c 2.67579,-2.40235 3.35938,-6.03517 3.35938,-8.96485 0,-3.14453 -0.76171,-6.66015 -3.35938,-8.96484 l -1.07421,0 c 0.68359,0.64452 1.77734,2.03125 2.42188,4.0625 0.46875,1.60156 0.64452,3.26171 0.64452,4.90234 0,5.27343 -1.875,7.8711 -3.0664,8.96485 l 1.07421,0 z m 0,0"
         style="fill:#000000;fill-opacity:1;stroke:none"
         inkscape:connector-curvature="0" />
    </g>
    <g
       id="g4263"
       transform="translate(54.592356,45.162766)">
      <path
         id="path3636"
         d="m 322.24619,914.68989 5.33203,0 0.23438,-1.07423 -5.33204,0 0.97656,-4.55077 2.30469,0 c 0.21485,0 0.42969,0.0195 0.64454,0.0195 l 3.10546,0 0.23438,-1.13282 -7.59765,0 -2.63673,12.40235 1.54298,0 1.1914,-5.66406 z m 0,0"
         style="fill:#000000;fill-opacity:1;stroke:none"
         inkscape:connector-curvature="0" />
      <path
         id="path3640"
         d="m 335.03261,906.91645 c -2.69531,2.40234 -3.35937,6.03515 -3.35937,8.96484 0,3.14453 0.76171,6.66016 3.35937,8.96485 l 1.07421,0 c -0.70312,-0.64454 -1.79687,-2.03125 -2.42187,-4.0625 -0.46875,-1.60157 -0.66406,-3.26173 -0.66406,-4.90235 0,-5.27344 1.89453,-7.87109 3.08593,-8.96484 l -1.07421,0 z m 0,0"
         style="fill:#000000;fill-opacity:1;stroke:none"
         inkscape:connector-curvature="0" />
      <path
         id="path3644"
         d="m 341.41212,907.91254 -2.65625,12.44141 4.62892,0 c 2.8125,0 5.15625,-1.99219 5.15625,-3.86719 0,-1.26954 -1.11329,-2.36329 -2.8125,-2.63672 1.75781,-0.41015 3.55468,-1.62109 3.55468,-3.26172 0,-1.52343 -1.5625,-2.67578 -3.73047,-2.67578 l -4.14063,0 z m 0.29298,5.42968 0.95702,-4.43358 2.1875,0 c 1.73829,0 3.04688,0.78125 3.04688,1.875 0,1.23046 -1.77734,2.55858 -3.96484,2.55858 l -2.22656,0 z m -1.26954,6.01563 1.03516,-4.9414 2.40234,0 c 1.99219,0 3.22266,0.99609 3.22266,2.1875 0,1.44531 -1.875,2.7539 -3.98437,2.7539 l -2.67579,0 z m 0,0"
         style="fill:#000000;fill-opacity:1;stroke:none"
         inkscape:connector-curvature="0" />
      <path
         id="path3648"
         d="m 352.29775,924.84614 c 2.67578,-2.40235 3.35937,-6.03517 3.35937,-8.96485 0,-3.14453 -0.76171,-6.66015 -3.35937,-8.96484 l -1.07422,0 c 0.68359,0.64452 1.77734,2.03125 2.42188,4.0625 0.46875,1.60156 0.64452,3.26171 0.64452,4.90234 0,5.27343 -1.875,7.8711 -3.0664,8.96485 l 1.07422,0 z m 0,0"
         style="fill:#000000;fill-opacity:1;stroke:none"
         inkscape:connector-curvature="0" />
    </g>
    <g
       id="g4331"
       transform="translate(-6.948118,7.9407064)">
      <path
         id="path3688"
         d="m 350.68838,964.01833 4.43358,0 0.19532,-0.89843 -4.43359,0 0.80077,-3.78907 1.9336,0 c 0.17578,0 0.35157,0.0195 0.52734,0.0195 l 2.59766,0 0.19532,-0.9375 -6.34767,0 -2.1875,10.33204 1.28907,0 0.9961,-4.72656 z m 0,0"
         style="fill:#000000;fill-opacity:1;stroke:none"
         inkscape:connector-curvature="0" />
      <path
         id="path3692"
         d="m 359.33414,957.53396 c -2.22656,2.01171 -2.79296,5.03906 -2.79296,7.48046 0,2.61719 0.64452,5.54687 2.79296,7.48047 l 0.89844,0 c -0.5664,-0.54687 -1.48438,-1.69922 -2.01172,-3.39843 -0.41016,-1.32813 -0.54687,-2.71485 -0.54687,-4.0625 0,-4.41406 1.5625,-6.5625 2.55859,-7.5 l -0.89844,0 z m 0,0"
         style="fill:#000000;fill-opacity:1;stroke:none"
         inkscape:connector-curvature="0" />
      <path
         id="path3696"
         d="m 363.8679,962.98317 1.60156,0 0.17579,-0.8789 -1.6211,0 0.39063,-1.83594 c 0.23437,-1.03516 1.25,-1.15235 1.58203,-1.15235 0.27344,0 0.68359,0.0586 1.11328,0.25392 l 0.21485,-0.9961 c -0.0781,-0.0195 -0.54688,-0.15625 -1.13282,-0.15625 -1.40624,0 -2.63672,1.11328 -2.92968,2.48047 l -0.3125,1.40625 -1.09375,0 -0.17579,0.8789 1.07423,0 -1.21094,5.76172 1.09375,0 1.23046,-5.76172 z m 0,0"
         style="fill:#000000;fill-opacity:1;stroke:none"
         inkscape:connector-curvature="0" />
      <path
         id="path3700"
         d="m 369.45227,972.49489 c 2.2461,-1.99218 2.8125,-5.03906 2.8125,-7.46093 0,-2.63673 -0.64452,-5.56641 -2.8125,-7.5 l -0.89843,0 c 0.58593,0.54687 1.50391,1.69921 2.03125,3.39844 0.39062,1.32812 0.54687,2.71483 0.54687,4.08202 0,4.39454 -1.5625,6.5625 -2.57812,7.48047 l 0.89843,0 z m 0,0"
         style="fill:#000000;fill-opacity:1;stroke:none"
         inkscape:connector-curvature="0" />
    </g>
    <path
       inkscape:connector-curvature="0"
       style="fill:#000000;fill-opacity:1;stroke:none"
       d="m 149.00363,972.41275 1.60156,0 0.17578,-0.8789 -1.62109,0 0.39062,-1.83594 c 0.23438,-1.03516 1.25,-1.15235 1.58204,-1.15235 0.27343,0 0.68358,0.0586 1.11327,0.25392 l 0.21485,-0.9961 c -0.0781,-0.0195 -0.54687,-0.15625 -1.13281,-0.15625 -1.40625,0 -2.63672,1.11328 -2.92969,2.48047 l -0.3125,1.40625 -1.09375,0 -0.17578,0.8789 1.07422,0 -1.21094,5.76173 1.09375,0 1.23047,-5.76173 z m 0,0"
       id="path3676" />
    <path
       inkscape:connector-curvature="0"
       style="fill:#000000;fill-opacity:1;stroke:none"
       d="m 236.33466,944.70721 5.33204,0 0.23438,-1.07423 -5.33204,0 0.97656,-4.55077 2.30469,0 c 0.21485,0 0.42969,0.0195 0.64454,0.0195 l 3.10546,0 0.23437,-1.13282 -7.59765,0 -2.63672,12.40235 1.54297,0 1.1914,-5.66406 z m 0,0"
       id="path3620-4" />
    <path
       style="fill:none;stroke:#000000;stroke-width:1px;stroke-linecap:butt;stroke-linejoin:miter;stroke-opacity:1"
       d="m 204.47319,963.02924 c 18.55162,-6.79809 56.78174,1.45336 67.9923,-0.4963"
       id="path4323"
       inkscape:connector-curvature="0" />
    <path
       style="fill:none;stroke:#000000;stroke-width:1px;stroke-linecap:butt;stroke-linejoin:miter;stroke-opacity:1"
       d="m 263.0359,956.08112 c 20.67726,4.1454 0.23648,12.24432 -3.47406,14.39253"
       id="path4325"
       inkscape:connector-curvature="0" />
    <path
       style="fill:none;stroke:#000000;stroke-width:1px;stroke-linecap:butt;stroke-linejoin:miter;stroke-opacity:1"
       d="m 148.07256,940.41659 c -15.50872,-4.53937 -41.01787,7.49912 -37.71836,27.29618 2.8815,17.28897 12.7589,21.37971 30.27395,23.32583 102.12055,11.3467 53.7195,-90.50263 -9.92589,-49.13313"
       id="path4404"
       inkscape:connector-curvature="0" />
    <path
       style="fill:none;stroke:#000000;stroke-width:1px;stroke-linecap:butt;stroke-linejoin:miter;stroke-opacity:1"
       d="m 325.74586,939.9203 c -14.76394,-3.21924 -44.49933,3.45869 -46.65165,22.82953 -2.10589,18.95304 14.85107,25.53317 30.27394,27.29618 200.99908,22.97649 102.0719,-81.0735 3.47406,-53.59977"
       id="path4406"
       inkscape:connector-curvature="0"
       sodipodi:nodetypes="cssc" />
    <path
       style="fill:none;stroke:#000000;stroke-width:1px;stroke-linecap:butt;stroke-linejoin:miter;stroke-opacity:1"
       d="m 109.18471,56.766023 c 10.01896,-0.04259 26.54973,0.754697 32.25912,0.992588"
       id="path4408"
       inkscape:connector-curvature="0"
       transform="translate(24.495316,906.4801)" />
    <path
       style="fill:none;stroke:#000000;stroke-width:1px;stroke-linecap:butt;stroke-linejoin:miter;stroke-opacity:1"
       d="m 137.96977,52.79567 c 13.79724,5.124392 -1.26977,6.772129 -1.48888,7.940706"
       id="path4410"
       inkscape:connector-curvature="0"
       transform="translate(24.495316,906.4801)" />
    <path
       style="fill:none;stroke:#000000;stroke-width:1px;stroke-linecap:butt;stroke-linejoin:miter;stroke-opacity:1"
       d="m 368.42716,958.28318 c -10.05621,1.66948 -24.79489,0.85814 -32.75542,0.4963"
       id="path4414"
       inkscape:connector-curvature="0" />
    <path
       style="fill:none;stroke:#000000;stroke-width:1px;stroke-linecap:butt;stroke-linejoin:miter;stroke-opacity:1"
       d="m 340.13839,954.31283 c -12.72793,5.67089 -8.06753,6.18887 0.99259,11.91106"
       id="path4416"
       inkscape:connector-curvature="0" />
  </g>
</svg>
