<?xml version="1.0" encoding="UTF-8" standalone="no"?>
<!-- Created with Inkscape (http://www.inkscape.org/) -->

<svg
   xmlns:dc="http://purl.org/dc/elements/1.1/"
   xmlns:cc="http://creativecommons.org/ns#"
   xmlns:rdf="http://www.w3.org/1999/02/22-rdf-syntax-ns#"
   xmlns:svg="http://www.w3.org/2000/svg"
   xmlns="http://www.w3.org/2000/svg"
   xmlns:sodipodi="http://sodipodi.sourceforge.net/DTD/sodipodi-0.dtd"
   xmlns:inkscape="http://www.inkscape.org/namespaces/inkscape"
   width="199.50824"
   height="68.025368"
   id="svg3945"
   version="1.1"
   inkscape:version="0.48.2 r9819"
   sodipodi:docname="cat_th.svg">
  <defs
     id="defs3947" />
  <sodipodi:namedview
     id="base"
     pagecolor="#ffffff"
     bordercolor="#666666"
     borderopacity="1.0"
     inkscape:pageopacity="0.0"
     inkscape:pageshadow="2"
     inkscape:zoom="3.515017"
     inkscape:cx="100.19026"
     inkscape:cy="35.973558"
     inkscape:document-units="px"
     inkscape:current-layer="layer1"
     showgrid="false"
     fit-margin-left="1"
     fit-margin-top="1"
     fit-margin-bottom="1"
     fit-margin-right="1"
     inkscape:window-width="1280"
     inkscape:window-height="752"
     inkscape:window-x="0"
     inkscape:window-y="0"
     inkscape:window-maximized="0" />
  <metadata
     id="metadata3950">
    <rdf:RDF>
      <cc:Work
         rdf:about="">
        <dc:format>image/svg+xml</dc:format>
        <dc:type
           rdf:resource="http://purl.org/dc/dcmitype/StillImage" />
        <dc:title />
      </cc:Work>
    </rdf:RDF>
  </metadata>
  <g
     inkscape:label="Layer 1"
     inkscape:groupmode="layer"
     id="layer1"
     transform="translate(-34.642066,-962.56786)">
    <path
       inkscape:connector-curvature="0"
       style="fill:#000000;fill-opacity:1;stroke:none"
       d="m 39.040506,1014.1881 5.0586,0 0.5664,3.6328 1.58204,0 -1.875,-12.4414 -1.5625,0 -7.16798,12.4414 1.32813,0 2.07031,-3.6328 z m 4.92187,-1.0156 -4.33593,0 1.95312,-3.4571 c 0.23438,-0.4101 1.36719,-2.4804 1.58204,-2.9882 l 0.0195,0 c -0.039,0.4882 0.13672,1.6796 0.19531,2.207 l 0.58594,4.2383 z m 0,0"
       id="path3616" />
    <path
       inkscape:connector-curvature="0"
       style="fill:#000000;fill-opacity:1;stroke:none"
       d="m 79.396452,963.56786 -2.65625,12.44141 4.62891,0 c 2.8125,0 5.15625,-1.99219 5.15625,-3.86719 0,-1.26953 -1.11329,-2.36328 -2.8125,-2.63672 1.75781,-0.41015 3.55469,-1.62109 3.55469,-3.26171 0,-1.52344 -1.5625,-2.67579 -3.73048,-2.67579 l -4.14062,0 z m 0.29298,5.42969 0.95702,-4.43359 2.1875,0 c 1.73829,0 3.04687,0.78125 3.04687,1.875 0,1.23046 -1.77733,2.55859 -3.96483,2.55859 l -2.22656,0 z m -1.26954,6.01562 1.03516,-4.9414 2.40234,0 c 1.99218,0 3.22266,0.99609 3.22266,2.1875 0,1.44531 -1.875,2.7539 -3.98437,2.7539 l -2.67579,0 z m 0,0"
       id="path3612" />
    <path
       inkscape:connector-curvature="0"
       style="fill:#000000;fill-opacity:1;stroke:none"
       d="m 129.58982,1003.2266 c -1.17187,-0.4883 -2.10937,-0.625 -3.16406,-0.625 -3.96485,0 -7.20704,4.1796 -7.20704,7.9492 0,2.7539 1.83594,4.8633 4.29688,4.8633 1.9336,0 2.63672,-0.1954 3.86719,-0.9766 l 0.15625,-1.25 c -1.21094,0.8008 -1.97265,1.1133 -3.49609,1.1133 -2.22656,0 -3.26173,-1.836 -3.26173,-3.8672 0,-3.1055 2.42188,-6.6992 5.44923,-6.6992 1.21094,0 1.95312,0.3125 2.79296,0.957 l 0.56641,-1.4648 z m 0,0"
       id="path3608" />
    <path
       inkscape:connector-curvature="0"
       style="fill:#000000;fill-opacity:1;stroke:none"
       d="m 176.44438,1009.6017 5.44922,-5.8789 -1.66016,0 -4.25781,4.6875 -2.40234,-4.6875 -1.77735,0 3.16406,5.8789 -6.05468,6.5625 1.64062,0 4.94141,-5.4883 2.69532,5.4883 1.79687,0 -3.53516,-6.5625 z m 0,0"
       id="path3604" />
    <path
       inkscape:connector-curvature="0"
       style="fill:#000000;fill-opacity:1;stroke:none"
       d="m 157.63514,972.65547 -1.5625,0 -5.35156,6.13281 -2.77344,-6.13281 -1.79687,0 3.39843,7.46094 -1.05468,4.98047 1.5039,0 1.05468,-4.98047 6.58204,-7.46094 z m 0,0"
       id="path3600" />
    <path
       inkscape:connector-curvature="0"
       style="fill:#000000;fill-opacity:1;stroke:none"
       d="m 227.75482,1003.12 c 0.13672,-0.1367 0.13672,-0.1758 0.19531,-0.3711 0,-0.039 0.0781,-0.4297 0.0781,-0.5078 l -8.51563,0 -0.21483,1.0938 3.49608,0 c 0.21485,0 0.42969,-0.019 0.64454,-0.019 l 2.42188,0 -8.92579,10.4297 c -0.13671,0.1757 -0.15625,0.2343 -0.19531,0.4101 -0.0195,0.059 -0.0976,0.4297 -0.0976,0.5274 l 8.84765,0 0.25391,-1.1524 -1.67969,0 c -1.54297,0 -3.10547,0.039 -4.64844,0.039 l -0.58593,0 8.92577,-10.4492 z m 0,0"
       id="path3596" />
    <g
       id="g3016"
       transform="matrix(0.96567476,-0.25975421,0.25975421,0.96567476,-256.77541,55.180435)">
      <path
         inkscape:connector-curvature="0"
         id="path3986"
         d="M 44.170179,993.30318 C 56.741566,990.01272 70.979156,979.95131 77.421887,974.9403"
         style="fill:none;stroke:#000000;stroke-width:1px;stroke-linecap:butt;stroke-linejoin:miter;stroke-opacity:1" />
      <path
         inkscape:connector-curvature="0"
         id="path3988"
         d="m 67.496004,977.42177 c 18.253737,-7.90871 4.897843,4.08153 5.955529,4.96294"
         style="fill:none;stroke:#000000;stroke-width:1px;stroke-linecap:butt;stroke-linejoin:miter;stroke-opacity:1" />
    </g>
    <g
       id="g3012"
       transform="matrix(0.96567476,-0.25975421,0.25975421,0.96567476,-256.77541,55.180435)">
      <path
         inkscape:connector-curvature="0"
         id="path3990"
         d="m 94.295887,980.39953 c 1.804741,15.60379 16.331693,27.26547 22.333233,31.26657"
         style="fill:none;stroke:#000000;stroke-width:1px;stroke-linecap:butt;stroke-linejoin:miter;stroke-opacity:1" />
      <path
         inkscape:connector-curvature="0"
         id="path3992"
         d="m 114.64395,1005.2142 c 5.69942,11.6313 -5.08365,5.4747 -6.45183,6.9482"
         style="fill:none;stroke:#000000;stroke-width:1px;stroke-linecap:butt;stroke-linejoin:miter;stroke-opacity:1" />
    </g>
    <g
       id="g3008"
       transform="matrix(0.96567476,-0.25975421,0.25975421,0.96567476,-256.77541,55.180435)">
      <path
         inkscape:connector-curvature="0"
         id="path3994"
         d="m 50.125709,1003.2291 c 18.898695,9.7807 38.238182,15.4775 59.059001,17.3703"
         style="fill:none;stroke:#000000;stroke-width:1px;stroke-linecap:butt;stroke-linejoin:miter;stroke-opacity:1" />
      <path
         inkscape:connector-curvature="0"
         id="path3996"
         d="m 105.71065,1017.1253 c 13.67232,6.2007 -2.49483,4.0541 -3.97035,6.4518"
         style="fill:none;stroke:#000000;stroke-width:1px;stroke-linecap:butt;stroke-linejoin:miter;stroke-opacity:1" />
    </g>
    <path
       style="fill:none;stroke:#000000;stroke-width:1px;stroke-linecap:butt;stroke-linejoin:miter;stroke-opacity:1"
       d="m 159.93954,982.32094 c 3.54461,2.39384 12.64693,11.82131 10.91847,14.39253"
       id="path3998"
       inkscape:connector-curvature="0"
       sodipodi:nodetypes="cc" />
    <path
       style="fill:none;stroke:#000000;stroke-width:1px;stroke-linecap:butt;stroke-linejoin:miter;stroke-opacity:1"
       d="m 166.39878,992.74312 c 5.84478,9.81318 5.9012,-1.21357 8.437,-2.48147"
       id="path4000"
       inkscape:connector-curvature="0"
       sodipodi:nodetypes="cc" />
    <path
       style="fill:none;stroke:#000000;stroke-width:1px;stroke-linecap:butt;stroke-linejoin:miter;stroke-opacity:1"
       d="m 151.50254,988.27647 c -0.15909,11.60535 5.34315,13.34193 13.39994,17.37033"
       id="path4002"
       inkscape:connector-curvature="0" />
    <path
       style="fill:none;stroke:#000000;stroke-width:1px;stroke-linecap:butt;stroke-linejoin:miter;stroke-opacity:1"
       d="m 162.91731,1000.1875 c 5.98705,8.2269 -2.0864,6.6765 -2.48147,7.9408"
       id="path4006"
       inkscape:connector-curvature="0" />
    <path
       style="fill:none;stroke:#000000;stroke-width:1px;stroke-linecap:butt;stroke-linejoin:miter;stroke-opacity:1"
       d="m 185.89454,1006.0841 c 6.92086,-2.2792 14.52425,-2.5729 21.77817,-1.8843"
       id="path4008"
       inkscape:connector-curvature="0" />
    <path
       style="fill:none;stroke:#000000;stroke-width:1px;stroke-linecap:butt;stroke-linejoin:miter;stroke-opacity:1"
       d="m 204.26175,1005.8146 c 11.02501,1.295 0.13718,-5.339 0.1916,-7.45848"
       id="path4010"
       inkscape:connector-curvature="0" />
    <path
       style="fill:none;stroke:#000000;stroke-width:1px;stroke-linecap:butt;stroke-linejoin:miter;stroke-opacity:1"
       d="m 212.04536,1013.9551 c -8.05181,4.8448 -16.44758,2.2928 -23.30629,0.9534"
       id="path4012"
       inkscape:connector-curvature="0" />
    <path
       style="fill:none;stroke:#000000;stroke-width:1px;stroke-linecap:butt;stroke-linejoin:miter;stroke-opacity:1"
       d="m 192.88805,1019.1943 c -10.91066,-8.4196 1.92219,-4.2726 3.6425,-8.0963"
       id="path4014"
       inkscape:connector-curvature="0" />
    <path
       inkscape:connector-curvature="0"
       style="fill:#000000;fill-opacity:1;stroke:none"
       d="m 52.375086,984.84522 1.60156,0 0.17579,-0.8789 -1.6211,0 0.39062,-1.83593 c 0.23438,-1.03517 1.25,-1.15235 1.58204,-1.15235 0.27344,0 0.68359,0.0586 1.11327,0.25391 l 0.21485,-0.9961 c -0.0781,-0.0195 -0.54687,-0.15625 -1.13281,-0.15625 -1.40625,0 -2.63672,1.11329 -2.92968,2.48047 l -0.3125,1.40625 -1.09375,0 -0.17579,0.8789 1.07422,0 -1.21093,5.76176 1.09375,0 1.23046,-5.76176 z m 0,0"
       id="path3676" />
    <path
       inkscape:connector-curvature="0"
       style="fill:#000000;fill-opacity:1;stroke:none"
       d="m 110.62873,978.75002 c -0.54688,0 -1.34765,0.0586 -2.40234,0.46875 -0.29298,-0.27344 -0.76173,-0.46875 -1.28906,-0.46875 -1.50392,0 -2.91017,1.46485 -2.91017,2.92968 0,0.5274 0.23438,0.957 0.23438,0.957 -0.2539,0.2539 -0.74219,0.8789 -0.74219,1.6602 0,0.4492 0.15625,0.7227 0.17579,0.7617 -0.95704,0.5078 -1.28906,1.3086 -1.28906,1.7969 0,0.918 1.07421,1.7383 2.85156,1.7383 1.5625,0 3.71094,-0.7617 3.71094,-2.461 0,-0.957 -0.60548,-1.6601 -2.61719,-1.6601 l -1.26954,0 c -0.29296,0 -0.70312,0 -0.70312,-0.586 0,-0.1757 0,-0.4101 0.29297,-0.7421 0.23438,0.1953 0.66406,0.4296 1.25,0.4296 1.48438,0 2.91015,-1.4453 2.91015,-2.92964 0,-0.54688 -0.2539,-0.97657 -0.2539,-0.9961 0.0586,0.039 0.0781,0.039 0.0976,0.039 0.0781,0 0.52735,-0.0586 1.15235,-0.0586 0.3125,0 0.42968,0 0.78125,0.0195 l 0.0195,-0.89844 z m -4.53125,4.00388 c -0.625,0 -1.03515,-0.3711 -1.03515,-1.0937 0,-0.87893 0.5664,-2.08987 1.69921,-2.08987 0.39062,0 1.03516,0.17579 1.03516,1.09375 0,0.93752 -0.58594,2.08982 -1.69922,2.08982 z m 0.0195,2.8125 c 0.99608,0 1.77733,0.1953 1.77733,0.8789 0,0.7618 -1.23046,1.3282 -2.46093,1.3282 -1.17188,0 -1.97265,-0.4493 -1.97265,-1.0352 0,-0.2344 0.21483,-1.1719 1.36718,-1.1719 l 1.28907,0 z m 0,0"
       id="path3672" />
    <g
       id="g3023"
       transform="translate(-1.4224682,-1.1379746)">
      <path
         id="path3668"
         d="m 79.282019,1020.8874 c -0.546875,0 -1.347649,0.059 -2.402337,0.4688 -0.292975,-0.2735 -0.761725,-0.4688 -1.289062,-0.4688 -1.503913,0 -2.910163,1.4649 -2.910163,2.9297 0,0.5274 0.234375,0.9571 0.234375,0.9571 -0.2539,0.2539 -0.742187,0.8789 -0.742187,1.6601 0,0.4492 0.15625,0.7227 0.175788,0.7617 -0.957038,0.5078 -1.289063,1.3086 -1.289063,1.7969 0,0.918 1.074213,1.7383 2.851562,1.7383 1.5625,0 3.710938,-0.7617 3.710938,-2.461 0,-0.957 -0.605475,-1.6601 -2.617188,-1.6601 l -1.269537,0 c -0.292963,0 -0.703125,0 -0.703125,-0.5859 0,-0.1758 0,-0.4102 0.292975,-0.7422 0.234375,0.1953 0.664062,0.4297 1.25,0.4297 1.484375,0 2.91015,-1.4454 2.91015,-2.9297 0,-0.5469 -0.2539,-0.9766 -0.2539,-0.9961 0.05862,0.039 0.07813,0.039 0.09762,0.039 0.07813,0 0.52735,-0.059 1.15235,-0.059 0.312499,0 0.429687,0 0.781249,0.019 l 0.0195,-0.8984 z m -4.531249,4.0039 c -0.625,0 -1.03515,-0.3711 -1.03515,-1.0937 0,-0.8789 0.5664,-2.0899 1.699212,-2.0899 0.390625,0 1.035163,0.1758 1.035163,1.0938 0,0.9375 -0.585938,2.0898 -1.699225,2.0898 z m 0.0195,2.8125 c 0.996087,0 1.777337,0.1954 1.777337,0.8789 0,0.7618 -1.230462,1.3282 -2.460937,1.3282 -1.171875,0 -1.97265,-0.4492 -1.97265,-1.0352 0,-0.2344 0.214838,-1.1719 1.367187,-1.1719 l 1.289063,0 z m 0,0"
         style="fill:#000000;fill-opacity:1;stroke:none"
         inkscape:connector-curvature="0" />
      <path
         id="path3680"
         d="m 87.795919,1023.9343 c 0,-1.6016 -1.328125,-2.9101 -2.91015,-2.9101 -1.601563,0 -2.910162,1.3281 -2.910162,2.9101 0,1.582 1.308599,2.8906 2.910162,2.8906 1.582025,0 2.91015,-1.289 2.91015,-2.8906 z m -2.91015,2.3047 c -1.289063,0 -2.304687,-1.0547 -2.304687,-2.3047 0,-1.2695 1.015624,-2.3047 2.304687,-2.3047 1.25,0 2.304687,1.0156 2.304687,2.3047 0,1.2891 -1.054687,2.3047 -2.304687,2.3047 z m 0,0"
         style="fill:#000000;fill-opacity:1;stroke:none"
         inkscape:connector-curvature="0" />
      <path
         id="path3684"
         d="m 93.756355,1021.9031 1.601563,0 0.175787,-0.8789 -1.6211,0 0.390625,-1.836 c 0.234375,-1.0351 1.25,-1.1523 1.582038,-1.1523 0.273437,0 0.683587,0.059 1.113275,0.2539 l 0.21485,-0.9961 c -0.07813,-0.019 -0.546875,-0.1563 -1.132813,-0.1563 -1.40625,0 -2.636725,1.1133 -2.929687,2.4805 l -0.3125,1.4063 -1.09375,0 -0.175787,0.8789 1.074225,0 -1.210938,5.7617 1.09375,0 1.230462,-5.7617 z m 0,0"
         style="fill:#000000;fill-opacity:1;stroke:none"
         inkscape:connector-curvature="0" />
    </g>
    <path
       style="fill:none;stroke:#000000;stroke-width:1px;stroke-linecap:butt;stroke-linejoin:miter;stroke-opacity:1"
       d="M 189.47277,33.601636 C 219.25653,16.518609 159.62152,-3.0654503 183.4984,34.739611"
       id="path3028"
       inkscape:connector-curvature="0"
       transform="translate(34.642066,962.56786)" />
    <path
       style="fill:none;stroke:#000000;stroke-width:1px;stroke-linecap:butt;stroke-linejoin:miter;stroke-opacity:1"
       d="m 183.4984,28.765244 c 1.27899,7.082148 1.56832,7.853466 -4.5519,5.40538"
       id="path3030"
       inkscape:connector-curvature="0"
       transform="translate(34.642066,962.56786)" />
  </g>
</svg>
