<?xml version="1.0" encoding="UTF-8" standalone="no"?>
<!-- Created with Inkscape (http://www.inkscape.org/) -->

<svg
   xmlns:dc="http://purl.org/dc/elements/1.1/"
   xmlns:cc="http://creativecommons.org/ns#"
   xmlns:rdf="http://www.w3.org/1999/02/22-rdf-syntax-ns#"
   xmlns:svg="http://www.w3.org/2000/svg"
   xmlns="http://www.w3.org/2000/svg"
   xmlns:sodipodi="http://sodipodi.sourceforge.net/DTD/sodipodi-0.dtd"
   xmlns:inkscape="http://www.inkscape.org/namespaces/inkscape"
   width="623.7771"
   height="850.36206"
   id="svg4517"
   version="1.1"
   inkscape:version="0.48.2 r9819"
   sodipodi:docname="bgtitlepage.svg">
  <defs
     id="defs4519" />
  <sodipodi:namedview
     id="base"
     pagecolor="#ffffff"
     bordercolor="#666666"
     borderopacity="1.0"
     inkscape:pageopacity="0.0"
     inkscape:pageshadow="2"
     inkscape:zoom="0.77"
     inkscape:cx="225.26483"
     inkscape:cy="248.29428"
     inkscape:document-units="px"
     inkscape:current-layer="layer1"
     showgrid="false"
     inkscape:window-width="1280"
     inkscape:window-height="752"
     inkscape:window-x="0"
     inkscape:window-y="0"
     inkscape:window-maximized="1"
     fit-margin-left="3"
     fit-margin-top="3"
     fit-margin-bottom="3"
     fit-margin-right="3" />
  <metadata
     id="metadata4522">
    <rdf:RDF>
      <cc:Work
         rdf:about="">
        <dc:format>image/svg+xml</dc:format>
        <dc:type
           rdf:resource="http://purl.org/dc/dcmitype/StillImage" />
        <dc:title></dc:title>
      </cc:Work>
    </rdf:RDF>
  </metadata>
  <g
     inkscape:label="Layer 1"
     inkscape:groupmode="layer"
     id="layer1"
     transform="translate(-43.477879,-166.87106)"
     style="opacity:0.2">
    <g
       id="g5206">
      <path
         inkscape:connector-curvature="0"
         id="path5202"
         d="m 121.02404,493.05752 c 15.98739,59.94582 12.68172,123.80472 10.19004,178.62185"
         style="fill:none;stroke:#000000;stroke-width:1px;stroke-linecap:butt;stroke-linejoin:miter;stroke-opacity:1"
         sodipodi:nodetypes="cc" />
      <path
         inkscape:connector-curvature="0"
         id="path5204"
         d="m 123.9244,654.67014 c 7.07251,31.4466 9.36767,11.09859 16.25323,1.24223"
         style="fill:none;stroke:#000000;stroke-width:1px;stroke-linecap:butt;stroke-linejoin:miter;stroke-opacity:1"
         sodipodi:nodetypes="cc" />
    </g>
    <g
       id="g5174">
      <path
         inkscape:connector-curvature="0"
         id="path5166"
         d="m 108.87459,491.4376 c -31.706954,76.06196 17.06376,199.53871 14.23985,245.84881"
         style="fill:none;stroke:#000000;stroke-width:1px;stroke-linecap:butt;stroke-linejoin:miter;stroke-opacity:1"
         sodipodi:nodetypes="cc" />
      <path
         inkscape:connector-curvature="0"
         id="path5168"
         d="m 113.91517,722.46721 c 8.50932,20.21352 7.61378,18.40916 19.43913,4.04982"
         style="fill:none;stroke:#000000;stroke-width:1px;stroke-linecap:butt;stroke-linejoin:miter;stroke-opacity:1"
         sodipodi:nodetypes="cc" />
    </g>
    <path
       id="path5212"
       style="fill:#ffffff;fill-opacity:0.74509804999999985;stroke:none"
       d="m 117.4447,582.58339 c 18.73345,19.25177 39.05067,43.55334 55.8654,68.00166 16.81474,24.44832 30.12698,49.0434 34.8505,68.88216 l -63.98711,24.70388 z M 46.97788,728.37681 c 10.19409,-22.65354 46.02474,-105.50098 68.84689,-146.60338 26.62642,48.04465 37.61255,121.18791 39.68821,166.85247 -36.85523,8.37618 -70.93527,-11.10293 -108.5351,-20.24909 z"
       inkscape:connector-curvature="0"
       sodipodi:nodetypes="csccccccc" />
    <g
       id="g5142">
      <path
         inkscape:connector-curvature="0"
         id="path5138"
         d="m 119.06462,303.95597 c -25.027977,53.78778 -0.71598,114.13411 -11.33948,158.75284"
         style="fill:none;stroke:#000000;stroke-width:1px;stroke-linecap:butt;stroke-linejoin:miter;stroke-opacity:1"
         sodipodi:nodetypes="cc" />
      <path
         inkscape:connector-curvature="0"
         id="path5140"
         d="m 100.43547,447.3195 c 8.09698,20.05178 4.20631,23.25419 17.00923,4.04982"
         style="fill:none;stroke:#000000;stroke-width:1px;stroke-linecap:butt;stroke-linejoin:miter;stroke-opacity:1" />
    </g>
    <path
       sodipodi:nodetypes="cccccccccccccccccccccssssc"
       inkscape:connector-curvature="0"
       d="m 630.57966,573.26902 c 19.07514,7.79274 16.65191,23.64182 16.65191,40.93595 m -38.0582,-37.15951 c 22.44195,12.66666 15.03714,49.79953 13.18277,57.58783 m -36.18157,-51.85551 c 15.31521,19.70246 17.05228,51.56974 14.57042,65.21994 m -35.38531,-42.60768 c 13.97794,18.46818 6.80708,49.09832 4.8568,55.50638 M 536.91266,615.1829 c 6.72673,20.32126 3.67806,40.97322 -1.38766,56.89405 M 491.05697,516.61021 c 7.71236,8.22203 15.66059,6.45619 24.28403,7.63212 m -22.83344,26.41442 c 13.53142,5.38104 27.07983,1.82361 38.85446,-1.38766 m -14.77528,32.61 c 19.25812,2.05029 35.85047,-1.67525 52.73105,-9.71362 m -50.4447,29.14084 c 23.6587,13.19906 50.11098,11.29342 69.38297,0.69383 m -85.34105,24.28405 c 26.61542,17.71018 66.81186,13.25614 90.89168,5.55065 M 537.04053,505.41116 c -114.53477,10.43629 -8.79322,65.51379 -16.08596,91.03835 -6.00492,21.01724 -56.45,66.71864 -15.26425,77.01508 41.59346,10.39836 202.2632,-61.39206 146.39806,-117.2572 -34.40569,-34.40569 -63.50654,9.96233 -87.06152,-13.59266 -11.30161,-11.30161 2.50231,-42.06469 -27.98633,-37.20357 z"
       style="fill:none;stroke:#000000;stroke-width:1px;stroke-linecap:butt;stroke-linejoin:miter;stroke-opacity:1"
       id="path3625" />
    <path
       style="fill:none;stroke:#000000;stroke-width:1px;stroke-linecap:butt;stroke-linejoin:miter;stroke-opacity:1"
       d="m 114.20484,170.37106 c -8.05039,2.00009 3.07143,7.67857 0,0 z"
       id="path4586"
       inkscape:connector-curvature="0" />
    <path
       style="fill:none;stroke:#000000;stroke-width:1px;stroke-linecap:butt;stroke-linejoin:miter;stroke-opacity:1"
       d="m 55.887477,287.7567 c 36.082859,-5.29422 82.678453,-5.44319 115.824773,-2.42989"
       id="path4588"
       inkscape:connector-curvature="0" />
    <path
       style="fill:#ffffff;fill-opacity:0.74509804999999985;stroke:#000000;stroke-width:1px;stroke-linecap:butt;stroke-linejoin:miter;stroke-opacity:1"
       d="m 165.23254,482.14793 c -8.60152,-25.80455 -28.55415,-81.80348 -51.0277,-114.20485 -9.86894,31.80411 -45.329008,88.67763 -55.07751,103.67532 30.845131,-0.56662 93.17864,8.53757 106.80695,11.01544"
       id="path4590"
       inkscape:connector-curvature="0"
       sodipodi:nodetypes="cccc" />
    <path
       style="fill:none;stroke:#000000;stroke-width:1px;stroke-linecap:butt;stroke-linejoin:miter;stroke-opacity:1"
       d="M 46.977879,728.37681 C 57.171974,705.72327 93.00262,622.87583 115.82477,581.77343 142.45119,629.81808 153.43732,702.96134 155.51298,748.6259 125.54947,747.98983 84.577711,737.52297 46.977879,728.37681 z"
       id="path4600"
       inkscape:connector-curvature="0"
       sodipodi:nodetypes="cccc" />
    <path
       style="fill:none;stroke:#000000;stroke-width:1px;stroke-linecap:butt;stroke-linejoin:miter;stroke-opacity:1"
       d="m 117.4447,582.58339 c 37.4669,38.50354 81.26887,97.20629 90.7159,136.88382"
       id="path4602"
       inkscape:connector-curvature="0" />
    <path
       style="fill:none;stroke:#000000;stroke-width:1px;stroke-linecap:butt;stroke-linejoin:miter;stroke-opacity:1"
       d="m 47.194015,728.86273 c 36.510528,-1.97898 87.975215,-10.38041 160.966585,-10.20548 -14.04434,16.92616 -40.7693,21.54238 -53.61945,29.53669"
       id="path4606"
       inkscape:connector-curvature="0"
       sodipodi:nodetypes="ccc" />
    <g
       id="g5158">
      <path
         inkscape:connector-curvature="0"
         id="path4608"
         d="M 103.47816,190.04611 C 93.064379,207.60699 77.929311,256.36497 70.466818,266.69766"
         style="fill:none;stroke:#000000;stroke-width:1px;stroke-linecap:butt;stroke-linejoin:miter;stroke-opacity:1"
         sodipodi:nodetypes="cc" />
      <path
         inkscape:connector-curvature="0"
         id="path4616"
         d="m 66.417001,251.30835 c 2.691629,21.97903 3.841333,14.64884 21.059049,8.9096"
         style="fill:none;stroke:#000000;stroke-width:1px;stroke-linecap:butt;stroke-linejoin:miter;stroke-opacity:1" />
    </g>
    <g
       id="g5154">
      <path
         inkscape:connector-curvature="0"
         id="path4618"
         d="m 123.34717,192.25378 c 9.72936,17.77717 29.90818,61.74285 39.45548,76.0638"
         style="fill:none;stroke:#000000;stroke-width:1px;stroke-linecap:butt;stroke-linejoin:miter;stroke-opacity:1"
         sodipodi:nodetypes="cc" />
      <path
         inkscape:connector-curvature="0"
         id="path4620"
         d="m 146.60338,261.83788 c 20.23518,10.39726 19.43912,12.74033 19.43912,-10.52953"
         style="fill:none;stroke:#000000;stroke-width:1px;stroke-linecap:butt;stroke-linejoin:miter;stroke-opacity:1" />
    </g>
    <g
       id="g5150">
      <path
         inkscape:connector-curvature="0"
         id="path4622"
         d="M 99.625502,300.71612 C 77.053124,331.41832 74.062078,382.85723 78.566453,407.63129"
         style="fill:none;stroke:#000000;stroke-width:1px;stroke-linecap:butt;stroke-linejoin:miter;stroke-opacity:1" />
      <path
         inkscape:connector-curvature="0"
         id="path4624"
         d="m 70.466818,396.2918 c 9.556016,20.40055 10.356856,12.17615 16.199269,-2.42989"
         style="fill:none;stroke:#000000;stroke-width:1px;stroke-linecap:butt;stroke-linejoin:miter;stroke-opacity:1" />
    </g>
    <g
       id="g5146">
      <path
         inkscape:connector-curvature="0"
         id="path4626"
         d="m 140.12367,302.33605 c 12.28004,31.9235 6.89883,77.58851 1.61993,89.90594"
         style="fill:none;stroke:#000000;stroke-width:1px;stroke-linecap:butt;stroke-linejoin:miter;stroke-opacity:1"
         sodipodi:nodetypes="cc" />
      <path
         inkscape:connector-curvature="0"
         id="path4628"
         d="m 136.88382,380.9025 c 5.06202,11.51594 -1.08693,19.7625 17.00923,4.85978"
         style="fill:none;stroke:#000000;stroke-width:1px;stroke-linecap:butt;stroke-linejoin:miter;stroke-opacity:1" />
    </g>
    <path
       style="fill:none;stroke:#000000;stroke-width:1px;stroke-linecap:butt;stroke-linejoin:miter;stroke-opacity:1"
       d="m 93.48528,489.81767 c -34.004641,55.98197 -7.358108,125.65469 3.710332,172.14214"
       id="path5162"
       inkscape:connector-curvature="0"
       sodipodi:nodetypes="cc" />
    <path
       style="fill:none;stroke:#000000;stroke-width:1px;stroke-linecap:butt;stroke-linejoin:miter;stroke-opacity:1"
       d="m 78.858193,647.73475 c 22.754917,13.89049 16.741818,24.56903 23.812987,-5.12987"
       id="path5164"
       inkscape:connector-curvature="0"
       sodipodi:nodetypes="cc" />
    <g
       id="g5198"
       transform="translate(4,0)">
      <path
         inkscape:connector-curvature="0"
         id="path5170"
         d="m 129.93364,493.86749 c -0.44816,61.01273 52.55149,119.04776 36.91883,173.76206"
         style="fill:none;stroke:#000000;stroke-width:1px;stroke-linecap:butt;stroke-linejoin:miter;stroke-opacity:1"
         sodipodi:nodetypes="cc" />
      <path
         inkscape:connector-curvature="0"
         id="path5172"
         d="m 161.18272,648.19043 c 5.90937,29.66502 5.36625,20.2093 19.65526,4.96769"
         style="fill:none;stroke:#000000;stroke-width:1px;stroke-linecap:butt;stroke-linejoin:miter;stroke-opacity:1"
         sodipodi:nodetypes="cc" />
    </g>
    <path
       inkscape:connector-curvature="0"
       d="m 74.650626,860.34563 c 0.325855,30.38165 0.387663,19.24969 16.838583,3.82695 m 11.075721,-97.58023 c 4.53571,58.54173 -15.314276,82.43629 -26.180982,112.84056"
       style="fill:none;stroke:#000000;stroke-width:1px;stroke-linecap:butt;stroke-linejoin:miter;stroke-opacity:1"
       id="path5180"
       sodipodi:nodetypes="cccc" />
    <path
       inkscape:connector-curvature="0"
       d="m 97.94422,980.3455 c 14.98624,18.1304 12.96617,20.5111 18.88384,-0.8672 m 4.52948,-209.82394 c 3.95756,52.36708 -27.53777,173.39403 -10.01998,224.83584"
       style="fill:none;stroke:#000000;stroke-width:1px;stroke-linecap:butt;stroke-linejoin:miter;stroke-opacity:1"
       id="path5184"
       sodipodi:nodetypes="cccc" />
    <path
       inkscape:connector-curvature="0"
       d="m 140.73724,900.28544 c 2.08996,23.1404 2.75074,19.85949 13.77702,4.59234 m -16.6338,-135.27003 c -4.50063,122.99631 17.058,101.5138 5.91834,147.51627"
       style="fill:none;stroke:#000000;stroke-width:1px;stroke-linecap:butt;stroke-linejoin:miter;stroke-opacity:1"
       id="path5188"
       sodipodi:nodetypes="cccc" />
    <path
       inkscape:connector-curvature="0"
       d="m 168.99105,968.51115 c 11.4219,14.36815 -0.5884,17.47085 20.01021,3.73851 m -30.556,-202.82834 c 6.18314,100.21681 34.03156,161.2757 17.29198,211.49435"
       style="fill:none;stroke:#000000;stroke-width:1px;stroke-linecap:butt;stroke-linejoin:miter;stroke-opacity:1"
       id="path5192"
       sodipodi:nodetypes="cccc" />
    <path
       inkscape:connector-curvature="0"
       d="m 197.8169,940.30722 c 9.73671,14.26298 0.57771,17.13056 18.02347,3.62958 M 178.544,767.96024 c 12.76433,100.44999 40.27293,141.36659 25.81869,184.76502"
       style="fill:none;stroke:#000000;stroke-width:1px;stroke-linecap:butt;stroke-linejoin:miter;stroke-opacity:1"
       id="path5196"
       sodipodi:nodetypes="cccc" />
    <path
       id="path5272"
       style="fill:none;stroke:#000000;stroke-width:1px;stroke-linecap:butt;stroke-linejoin:miter;stroke-opacity:1"
       d="m 406.04168,483.19031 c 7.92065,18.67485 6.84032,12.10102 -10.36523,13.86538 M 277.05753,346.79428 c 12.77363,41.70343 110.28597,134.76056 133.51289,149.85806"
       inkscape:connector-curvature="0"
       sodipodi:nodetypes="cccc" />
    <path
       id="path5274"
       style="fill:none;stroke:#000000;stroke-width:1px;stroke-linecap:butt;stroke-linejoin:miter;stroke-opacity:1"
       d="m 392.26333,544.03443 c 14.08496,21.94012 8.28016,13.29869 -6.48195,20.94701 M 277.00319,474.32198 c 18.55186,23.63949 97.45888,73.27286 123.10874,84.42497"
       inkscape:connector-curvature="0"
       sodipodi:nodetypes="cccc" />
    <path
       id="path5276"
       style="fill:none;stroke:#000000;stroke-width:1px;stroke-linecap:butt;stroke-linejoin:miter;stroke-opacity:1"
       d="m 389.28373,628.15628 c 27.01245,12.43272 20.05544,0.44443 2.12477,18.40954 m -106.32813,27.62022 c 27.31353,-15.73067 106.80694,-37.76427 122.07509,-39.09193"
       inkscape:connector-curvature="0"
       sodipodi:nodetypes="cccc" />
    <path
       id="path5278"
       style="fill:none;stroke:#000000;stroke-width:1px;stroke-linecap:butt;stroke-linejoin:miter;stroke-opacity:1"
       d="m 401.42835,700.44168 c 26.16649,-10.62971 19.27198,-7.85429 14.33281,12.92777 M 310.45233,847.34563 c 16.27251,-34.31462 93.77044,-141.43611 109.68329,-152.92872"
       inkscape:connector-curvature="0"
       sodipodi:nodetypes="cccc" />
  </g>
</svg>
