<?xml version="1.0" encoding="UTF-8" standalone="no"?>
<!-- Created with Inkscape (http://www.inkscape.org/) -->

<svg
   xmlns:dc="http://purl.org/dc/elements/1.1/"
   xmlns:cc="http://creativecommons.org/ns#"
   xmlns:rdf="http://www.w3.org/1999/02/22-rdf-syntax-ns#"
   xmlns:svg="http://www.w3.org/2000/svg"
   xmlns="http://www.w3.org/2000/svg"
   xmlns:sodipodi="http://sodipodi.sourceforge.net/DTD/sodipodi-0.dtd"
   xmlns:inkscape="http://www.inkscape.org/namespaces/inkscape"
   width="267.68011"
   height="61.716404"
   id="svg4067"
   version="1.1"
   inkscape:version="0.48.2 r9819"
   sodipodi:docname="simplicial_eqrel.svg">
  <defs
     id="defs4069" />
  <sodipodi:namedview
     id="base"
     pagecolor="#ffffff"
     bordercolor="#666666"
     borderopacity="1.0"
     inkscape:pageopacity="0.0"
     inkscape:pageshadow="2"
     inkscape:zoom="3.06"
     inkscape:cx="134.3004"
     inkscape:cy="40.296005"
     inkscape:document-units="px"
     inkscape:current-layer="layer1"
     showgrid="false"
     fit-margin-left="1"
     fit-margin-top="1"
     fit-margin-right="1"
     fit-margin-bottom="1"
     inkscape:window-width="1280"
     inkscape:window-height="976"
     inkscape:window-x="1280"
     inkscape:window-y="0"
     inkscape:window-maximized="1" />
  <metadata
     id="metadata4072">
    <rdf:RDF>
      <cc:Work
         rdf:about="">
        <dc:format>image/svg+xml</dc:format>
        <dc:type
           rdf:resource="http://purl.org/dc/dcmitype/StillImage" />
        <dc:title></dc:title>
      </cc:Work>
    </rdf:RDF>
  </metadata>
  <g
     inkscape:label="Layer 1"
     inkscape:groupmode="layer"
     id="layer1"
     transform="translate(-12.921824,-967.58129)">
    <path
       style="fill:none;stroke:#000000;stroke-width:1px;stroke-linecap:butt;stroke-linejoin:miter;stroke-opacity:1"
       d="m 169.79904,1016.9319 c -8.71891,0 -31.60252,-1.9358 -45.74643,0 6.90215,-12.4106 17.51561,-28.08814 21.56617,-34.63655"
       id="path4470"
       inkscape:connector-curvature="0" />
    <path
       style="fill:none;stroke:#000000;stroke-width:1;stroke-linecap:butt;stroke-linejoin:miter;stroke-miterlimit:4;stroke-opacity:1;stroke-dasharray:3, 3;stroke-dashoffset:0"
       d="m 145.61878,982.29535 c 14.07652,8.14646 17.18362,24.30305 24.18026,34.63655"
       id="path4239"
       inkscape:connector-curvature="0" />
    <path
       inkscape:connector-curvature="0"
       id="path4257"
       d="m 128.45317,1004.4281 c 3.65896,-0.03 3.71353,-0.6706 3.71353,2.9177"
       style="fill:none;stroke:#000000;stroke-width:1px;stroke-linecap:butt;stroke-linejoin:miter;stroke-opacity:1" />
    <path
       inkscape:connector-curvature="0"
       id="path4259"
       d="m 163.57576,1000.0908 c 0.50939,4.6168 -0.61662,3.3883 -2.8544,2.8716"
       style="fill:none;stroke:#000000;stroke-width:1px;stroke-linecap:butt;stroke-linejoin:miter;stroke-opacity:1" />
    <path
       inkscape:connector-curvature="0"
       id="path4261"
       d="m 150.46908,1013.9771 c 0.0884,0.3537 0.61893,0.9726 0.26526,1.061 -0.35367,0.088 -0.52303,-1.3188 -0.26526,-1.061 0.3498,0.3498 2.15909,2.8807 2.12202,2.9178 -0.73617,0.7362 -2.90635,2.8949 -2.38727,1.8568"
       style="fill:none;stroke:#000000;stroke-width:1px;stroke-linecap:butt;stroke-linejoin:miter;stroke-opacity:1" />
    <path
       style="fill:none;stroke:#000000;stroke-width:1px;stroke-linecap:butt;stroke-linejoin:miter;stroke-opacity:1"
       d="m 224.05261,1016.9319 c 6.90215,-12.4106 17.51561,-28.08814 21.56617,-34.63655 14.07652,8.14646 17.18362,24.30305 24.18026,34.63655"
       id="path4982"
       inkscape:connector-curvature="0" />
    <path
       style="fill:none;stroke:#000000;stroke-width:1;stroke-linecap:butt;stroke-linejoin:miter;stroke-miterlimit:4;stroke-opacity:1;stroke-dasharray:3, 3;stroke-dashoffset:0"
       d="m 269.79904,1016.9319 c -8.71891,0 -31.60252,-1.9358 -45.74643,0"
       id="path4283"
       inkscape:connector-curvature="0" />
    <path
       style="fill:none;stroke:#000000;stroke-width:1px;stroke-linecap:butt;stroke-linejoin:miter;stroke-opacity:1"
       d="m 230.45317,1001.4281 c 3.65896,-0.03 3.71353,-0.6706 3.71353,2.9177"
       id="path4301"
       inkscape:connector-curvature="0" />
    <path
       style="fill:none;stroke:#000000;stroke-width:1px;stroke-linecap:butt;stroke-linejoin:miter;stroke-opacity:1"
       d="m 263.73221,1000.2049 c 0.12687,4.6431 -0.89398,3.3259 -3.08152,2.6264"
       id="path4303"
       inkscape:connector-curvature="0" />
    <path
       style="fill:none;stroke:#000000;stroke-width:1px;stroke-linecap:butt;stroke-linejoin:miter;stroke-opacity:1"
       d="m 247.46908,1012.9771 c 0.0884,0.3537 0.61892,0.9726 0.26526,1.061 -0.35367,0.088 -0.52304,-1.3188 -0.26526,-1.061 0.3498,0.3498 2.15909,2.8807 2.12202,2.9178 -0.73617,0.7362 -2.90635,2.8949 -2.38727,1.8568"
       id="path4305"
       inkscape:connector-curvature="0" />
    <path
       style="fill:none;stroke:#000000;stroke-width:1;stroke-linecap:butt;stroke-linejoin:miter;stroke-opacity:1;stroke-miterlimit:4;stroke-dasharray:3,3;stroke-dashoffset:0"
       d="m 69.799041,998.9319 c -8.71891,0 -31.60252,-1.9358 -45.74643,0"
       id="path3128"
       inkscape:connector-curvature="0"
       sodipodi:nodetypes="cc" />
    <path
       style="fill:none;stroke:#000000;stroke-width:1px;stroke-linecap:butt;stroke-linejoin:miter;stroke-opacity:1"
       d="m 50.469085,995.9771 c 0.08842,0.3537 0.618921,0.9726 0.265252,1.061 -0.353669,0.088 -0.523031,-1.3188 -0.265252,-1.061 0.349792,0.3498 2.15909,2.8807 2.122016,2.9178 -0.736169,0.7362 -2.906355,2.8949 -2.387268,1.8568"
       id="path5526"
       inkscape:connector-curvature="0" />
    <path
       inkscape:connector-curvature="0"
       style="fill:#000000;fill-opacity:1;stroke:none"
       d="m 18.081987,997.8864 c 0.07813,-0.3516 0.390625,-1.6016 1.34765,-1.6016 0.07813,0 0.390625,0 0.6836,0.1758 -0.3711,0.059 -0.644538,0.4102 -0.644538,0.7422 0,0.2149 0.136725,0.4688 0.507813,0.4688 0.3125,0 0.742187,-0.2539 0.742187,-0.7813 0,-0.7226 -0.800775,-0.918 -1.269525,-0.918 -0.800787,0 -1.269537,0.7227 -1.425787,1.0547 -0.351563,-0.9179 -1.09375,-1.0547 -1.484375,-1.0547 -1.40625,0 -2.1875,1.7774 -2.1875,2.1094 0,0.1367 0.136725,0.1367 0.15625,0.1367 0.117125,0 0.15625,-0.02 0.175787,-0.1562 0.46875,-1.4453 1.367188,-1.7774 1.835938,-1.7774 0.2539,0 0.742187,0.1172 0.742187,0.918 0,0.4102 -0.234375,1.3281 -0.742187,3.2422 -0.21485,0.8398 -0.703125,1.4063 -1.289063,1.4063 -0.09763,0 -0.410162,0 -0.6836,-0.1758 0.332038,-0.059 0.625,-0.3516 0.625,-0.7227 0,-0.3711 -0.292962,-0.4883 -0.488275,-0.4883 -0.410162,0 -0.761725,0.3516 -0.761725,0.8008 0,0.625 0.6836,0.8985 1.289063,0.8985 0.898437,0 1.386725,-0.9571 1.425787,-1.0352 0.175775,0.4883 0.664063,1.0352 1.484375,1.0352 1.386713,0 2.167963,-1.7579 2.167963,-2.1094 0,-0.1367 -0.117125,-0.1367 -0.15625,-0.1367 -0.117125,0 -0.15625,0.059 -0.175775,0.1562 -0.449225,1.4649 -1.386725,1.7774 -1.816413,1.7774 -0.527337,0 -0.742187,-0.4297 -0.742187,-0.8985 0,-0.293 0.07813,-0.5859 0.21485,-1.1914 l 0.46875,-1.875 z m 0,0"
       id="path3313" />
    <path
       id="path4402"
       d="m 77.081987,997.8864 c 0.07813,-0.3516 0.390625,-1.6016 1.34765,-1.6016 0.07813,0 0.390625,0 0.6836,0.1758 -0.3711,0.059 -0.644538,0.4102 -0.644538,0.7422 0,0.2149 0.136725,0.4688 0.507813,0.4688 0.3125,0 0.742187,-0.2539 0.742187,-0.7813 0,-0.7226 -0.800775,-0.918 -1.269525,-0.918 -0.800787,0 -1.269537,0.7227 -1.425787,1.0547 -0.351563,-0.9179 -1.09375,-1.0547 -1.484375,-1.0547 -1.40625,0 -2.1875,1.7774 -2.1875,2.1094 0,0.1367 0.136725,0.1367 0.15625,0.1367 0.117125,0 0.15625,-0.02 0.175787,-0.1562 0.46875,-1.4453 1.367188,-1.7774 1.835938,-1.7774 0.2539,0 0.742187,0.1172 0.742187,0.918 0,0.4102 -0.234375,1.3281 -0.742187,3.2422 -0.21485,0.8398 -0.703125,1.4063 -1.289063,1.4063 -0.09763,0 -0.410162,0 -0.6836,-0.1758 0.332038,-0.059 0.625,-0.3516 0.625,-0.7227 0,-0.3711 -0.292962,-0.4883 -0.488275,-0.4883 -0.410162,0 -0.761725,0.3516 -0.761725,0.8008 0,0.625 0.6836,0.8985 1.289063,0.8985 0.898437,0 1.386725,-0.9571 1.425787,-1.0352 0.175775,0.4883 0.664063,1.0352 1.484375,1.0352 1.386713,0 2.167963,-1.7579 2.167963,-2.1094 0,-0.1367 -0.117125,-0.1367 -0.15625,-0.1367 -0.117125,0 -0.15625,0.059 -0.175775,0.1562 -0.449225,1.4649 -1.386725,1.7774 -1.816413,1.7774 -0.527337,0 -0.742187,-0.4297 -0.742187,-0.8985 0,-0.293 0.07813,-0.5859 0.21485,-1.1914 l 0.46875,-1.875 z m 0,0"
       style="fill:#000000;fill-opacity:1;stroke:none"
       inkscape:connector-curvature="0" />
    <path
       inkscape:connector-curvature="0"
       style="fill:#000000;fill-opacity:1;stroke:none"
       d="m 119.38918,1021.7688 c 0.0781,-0.3516 0.39062,-1.6016 1.34765,-1.6016 0.0781,0 0.39062,0 0.6836,0.1758 -0.3711,0.059 -0.64454,0.4101 -0.64454,0.7422 0,0.2148 0.13672,0.4687 0.50781,0.4687 0.3125,0 0.74219,-0.2539 0.74219,-0.7812 0,-0.7227 -0.80078,-0.918 -1.26953,-0.918 -0.80078,0 -1.26953,0.7227 -1.42578,1.0547 -0.35157,-0.918 -1.09375,-1.0547 -1.48438,-1.0547 -1.40625,0 -2.1875,1.7773 -2.1875,2.1094 0,0.1367 0.13673,0.1367 0.15625,0.1367 0.11713,0 0.15625,-0.02 0.17579,-0.1563 0.46875,-1.4453 1.36719,-1.7773 1.83594,-1.7773 0.2539,0 0.74218,0.1171 0.74218,0.918 0,0.4101 -0.23437,1.3281 -0.74218,3.2422 -0.21485,0.8398 -0.70313,1.4062 -1.28907,1.4062 -0.0976,0 -0.41016,0 -0.6836,-0.1758 0.33204,-0.059 0.625,-0.3515 0.625,-0.7226 0,-0.3711 -0.29296,-0.4883 -0.48827,-0.4883 -0.41016,0 -0.76173,0.3515 -0.76173,0.8008 0,0.625 0.6836,0.8984 1.28907,0.8984 0.89843,0 1.38672,-0.957 1.42578,-1.0352 0.17578,0.4883 0.66407,1.0352 1.48438,1.0352 1.38671,0 2.16796,-1.7578 2.16796,-2.1094 0,-0.1367 -0.11712,-0.1367 -0.15625,-0.1367 -0.11712,0 -0.15625,0.059 -0.17577,0.1563 -0.44923,1.4648 -1.38673,1.7773 -1.81642,1.7773 -0.52733,0 -0.74218,-0.4297 -0.74218,-0.8984 0,-0.293 0.0781,-0.586 0.21485,-1.1914 l 0.46875,-1.875 z m 0,0"
       id="path3313-5" />
    <g
       transform="matrix(1.25,0,0,1.25,-230.89716,824.85019)"
       id="g3391">
      <path
         id="path3317"
         d="m 302.15899,120.64512 c 0.0625,-0.28125 0.3125,-1.28125 1.07813,-1.28125 0.0625,0 0.3125,0 0.54687,0.14063 -0.29687,0.0469 -0.51562,0.32812 -0.51562,0.59375 0,0.17187 0.10937,0.375 0.40625,0.375 0.25,0 0.59375,-0.20313 0.59375,-0.625 0,-0.57813 -0.64063,-0.73438 -1.01563,-0.73438 -0.64062,0 -1.01562,0.57813 -1.14062,0.84375 -0.28125,-0.73437 -0.875,-0.84375 -1.1875,-0.84375 -1.125,0 -1.75,1.42188 -1.75,1.6875 0,0.10938 0.10937,0.10938 0.125,0.10938 0.0937,0 0.125,-0.0156 0.14062,-0.125 0.375,-1.15625 1.09375,-1.42188 1.46875,-1.42188 0.20313,0 0.59375,0.0937 0.59375,0.73438 0,0.32812 -0.1875,1.0625 -0.59375,2.59375 -0.17187,0.67187 -0.5625,1.125 -1.03125,1.125 -0.0781,0 -0.32812,0 -0.54687,-0.14063 0.26562,-0.0469 0.5,-0.28125 0.5,-0.57812 0,-0.29688 -0.23438,-0.39063 -0.39063,-0.39063 -0.32812,0 -0.60937,0.28125 -0.60937,0.64063 0,0.5 0.54687,0.71875 1.03125,0.71875 0.71875,0 1.10937,-0.76563 1.14062,-0.82813 0.14063,0.39063 0.53125,0.82813 1.1875,0.82813 1.10938,0 1.73438,-1.40625 1.73438,-1.6875 0,-0.10938 -0.0937,-0.10938 -0.125,-0.10938 -0.0937,0 -0.125,0.0469 -0.14063,0.125 -0.35937,1.17188 -1.10937,1.42188 -1.45312,1.42188 -0.42188,0 -0.59375,-0.34375 -0.59375,-0.71875 0,-0.23438 0.0625,-0.46875 0.17187,-0.95313 l 0.375,-1.5 z m 0,0"
         style="fill:#000000;fill-opacity:1;stroke:none"
         inkscape:connector-curvature="0" />
      <path
         id="path3321"
         d="m 306.86636,115.65675 c 0.0469,-0.0937 0.0781,-0.15625 0.0781,-0.23437 0,-0.26563 -0.25,-0.4375 -0.46875,-0.4375 -0.3125,0 -0.40625,0.28125 -0.4375,0.39062 l -1.01563,3.4375 c -0.0312,0.0937 -0.0312,0.10938 -0.0312,0.125 0,0.0625 0.0469,0.0781 0.125,0.10938 0.15625,0.0625 0.17188,0.0625 0.1875,0.0625 0.0156,0 0.0625,0 0.125,-0.14063 l 1.4375,-3.3125 z m 0,0"
         style="fill:#000000;fill-opacity:1;stroke:none"
         inkscape:connector-curvature="0" />
    </g>
    <path
       inkscape:connector-curvature="0"
       style="fill:#000000;fill-opacity:1;stroke:none"
       d="m 174.61794,1022.7492 c 0.0781,-0.3516 0.39062,-1.6016 1.34765,-1.6016 0.0781,0 0.39062,0 0.6836,0.1758 -0.3711,0.059 -0.64454,0.4101 -0.64454,0.7422 0,0.2148 0.13672,0.4687 0.50781,0.4687 0.3125,0 0.74219,-0.2539 0.74219,-0.7812 0,-0.7227 -0.80078,-0.918 -1.26953,-0.918 -0.80078,0 -1.26953,0.7227 -1.42578,1.0547 -0.35157,-0.918 -1.09375,-1.0547 -1.48438,-1.0547 -1.40625,0 -2.1875,1.7773 -2.1875,2.1094 0,0.1367 0.13673,0.1367 0.15625,0.1367 0.11713,0 0.15625,-0.02 0.17579,-0.1563 0.46875,-1.4453 1.36719,-1.7773 1.83594,-1.7773 0.2539,0 0.74218,0.1171 0.74218,0.918 0,0.4101 -0.23437,1.3281 -0.74218,3.2422 -0.21485,0.8398 -0.70313,1.4062 -1.28907,1.4062 -0.0976,0 -0.41016,0 -0.6836,-0.1758 0.33204,-0.059 0.625,-0.3515 0.625,-0.7226 0,-0.3711 -0.29296,-0.4883 -0.48827,-0.4883 -0.41016,0 -0.76173,0.3515 -0.76173,0.8008 0,0.625 0.6836,0.8984 1.28907,0.8984 0.89843,0 1.38672,-0.957 1.42578,-1.0352 0.17578,0.4883 0.66407,1.0352 1.48438,1.0352 1.38671,0 2.16796,-1.7578 2.16796,-2.1094 0,-0.1367 -0.11712,-0.1367 -0.15625,-0.1367 -0.11712,0 -0.15625,0.059 -0.17577,0.1563 -0.44923,1.4648 -1.38673,1.7773 -1.81642,1.7773 -0.52733,0 -0.74218,-0.4297 -0.74218,-0.8984 0,-0.293 0.0781,-0.586 0.21485,-1.1914 l 0.46875,-1.875 z m 0,0"
       id="path3313-5-5" />
    <g
       transform="matrix(1.25,0,0,1.25,-132.9927,851.21487)"
       id="g3379">
      <path
         id="path3333"
         d="m 279.97962,135.86312 c 0.0625,-0.28125 0.3125,-1.28125 1.07812,-1.28125 0.0625,0 0.3125,0 0.54688,0.14063 -0.29688,0.0469 -0.51563,0.32812 -0.51563,0.59375 0,0.17187 0.10938,0.375 0.40625,0.375 0.25,0 0.59375,-0.20313 0.59375,-0.625 0,-0.57813 -0.64062,-0.73438 -1.01562,-0.73438 -0.64063,0 -1.01563,0.57813 -1.14063,0.84375 -0.28125,-0.73437 -0.875,-0.84375 -1.1875,-0.84375 -1.125,0 -1.75,1.42188 -1.75,1.6875 0,0.10938 0.10938,0.10938 0.125,0.10938 0.0937,0 0.125,-0.0156 0.14063,-0.125 0.375,-1.15625 1.09375,-1.42188 1.46875,-1.42188 0.20312,0 0.59375,0.0937 0.59375,0.73438 0,0.32812 -0.1875,1.0625 -0.59375,2.59375 -0.17188,0.67187 -0.5625,1.125 -1.03125,1.125 -0.0781,0 -0.32813,0 -0.54688,-0.14063 0.26563,-0.0469 0.5,-0.28125 0.5,-0.57812 0,-0.29688 -0.23437,-0.39063 -0.39062,-0.39063 -0.32813,0 -0.60938,0.28125 -0.60938,0.64063 0,0.5 0.54688,0.71875 1.03125,0.71875 0.71875,0 1.10938,-0.76563 1.14063,-0.82813 0.14062,0.39063 0.53125,0.82813 1.1875,0.82813 1.10937,0 1.73437,-1.40625 1.73437,-1.6875 0,-0.10938 -0.0937,-0.10938 -0.125,-0.10938 -0.0937,0 -0.125,0.0469 -0.14062,0.125 -0.35938,1.17188 -1.10938,1.42188 -1.45313,1.42188 -0.42187,0 -0.59375,-0.34375 -0.59375,-0.71875 0,-0.23438 0.0625,-0.46875 0.17188,-0.95313 l 0.375,-1.5 z m 0,0"
         style="fill:#000000;fill-opacity:1;stroke:none"
         inkscape:connector-curvature="0" />
      <path
         id="path3337"
         d="m 286.46362,138.24913 c 0,-0.84375 -0.0781,-1.35937 -0.34375,-1.875 -0.34375,-0.70312 -1,-0.875 -1.4375,-0.875 -1,0 -1.375,0.75 -1.48437,0.96875 -0.28125,0.57813 -0.29688,1.375 -0.29688,1.78125 0,0.53125 0.0156,1.32813 0.40625,1.96875 0.35938,0.59375 0.95313,0.75 1.375,0.75 0.39063,0 1.0625,-0.125 1.46875,-0.90625 0.29688,-0.57812 0.3125,-1.29687 0.3125,-1.8125 z m -1.78125,2.48438 c -0.26562,0 -0.8125,-0.125 -0.98437,-0.95313 -0.0937,-0.45312 -0.0937,-1.20312 -0.0937,-1.625 0,-0.54687 0,-1.10937 0.0937,-1.54687 0.17187,-0.8125 0.78125,-0.89063 0.98437,-0.89063 0.26563,0 0.82813,0.14063 0.98438,0.85938 0.0937,0.4375 0.0937,1.04687 0.0937,1.57812 0,0.46875 0,1.1875 -0.0937,1.64063 -0.17188,0.82812 -0.71875,0.9375 -0.98438,0.9375 z m 0,0"
         style="fill:#000000;fill-opacity:1;stroke:none"
         inkscape:connector-curvature="0" />
    </g>
    <g
       transform="matrix(1.25,0,0,1.25,-126.74274,804.59026)"
       id="g3383">
      <path
         id="path3345"
         d="m 295.79899,135.86312 c 0.0625,-0.28125 0.3125,-1.28125 1.07812,-1.28125 0.0625,0 0.3125,0 0.54688,0.14063 -0.29688,0.0469 -0.51563,0.32812 -0.51563,0.59375 0,0.17187 0.10938,0.375 0.40625,0.375 0.25,0 0.59375,-0.20313 0.59375,-0.625 0,-0.57813 -0.64062,-0.73438 -1.01562,-0.73438 -0.64063,0 -1.01563,0.57813 -1.14063,0.84375 -0.28125,-0.73437 -0.875,-0.84375 -1.1875,-0.84375 -1.125,0 -1.75,1.42188 -1.75,1.6875 0,0.10938 0.10938,0.10938 0.125,0.10938 0.0937,0 0.125,-0.0156 0.14063,-0.125 0.375,-1.15625 1.09375,-1.42188 1.46875,-1.42188 0.20312,0 0.59375,0.0937 0.59375,0.73438 0,0.32812 -0.1875,1.0625 -0.59375,2.59375 -0.17188,0.67187 -0.5625,1.125 -1.03125,1.125 -0.0781,0 -0.32813,0 -0.54688,-0.14063 0.26563,-0.0469 0.5,-0.28125 0.5,-0.57812 0,-0.29688 -0.23437,-0.39063 -0.39062,-0.39063 -0.32813,0 -0.60938,0.28125 -0.60938,0.64063 0,0.5 0.54688,0.71875 1.03125,0.71875 0.71875,0 1.10938,-0.76563 1.14063,-0.82813 0.14062,0.39063 0.53125,0.82813 1.1875,0.82813 1.10937,0 1.73437,-1.40625 1.73437,-1.6875 0,-0.10938 -0.0937,-0.10938 -0.125,-0.10938 -0.0937,0 -0.125,0.0469 -0.14062,0.125 -0.35938,1.17188 -1.10938,1.42188 -1.45313,1.42188 -0.42187,0 -0.59375,-0.34375 -0.59375,-0.71875 0,-0.23438 0.0625,-0.46875 0.17188,-0.95313 l 0.375,-1.5 z m 0,0"
         style="fill:#000000;fill-opacity:1;stroke:none"
         inkscape:connector-curvature="0" />
      <path
         id="path3349"
         d="m 300.88901,135.71788 c 0,-0.21875 -0.0156,-0.21875 -0.23438,-0.21875 -0.32812,0.3125 -0.75,0.5 -1.5,0.5 l 0,0.26563 c 0.21875,0 0.64063,0 1.10938,-0.20313 l 0,4.07813 c 0,0.29687 -0.0312,0.39062 -0.78125,0.39062 l -0.28125,0 0,0.26563 c 0.32812,-0.0312 1.01562,-0.0312 1.375,-0.0312 0.35937,0 1.04687,0 1.375,0.0312 l 0,-0.26563 -0.28125,0 c -0.75,0 -0.78125,-0.0937 -0.78125,-0.39062 l 0,-4.42188 z m 0,0"
         style="fill:#000000;fill-opacity:1;stroke:none"
         inkscape:connector-curvature="0" />
    </g>
    <g
       transform="matrix(1.25,0,0,1.25,-117.90045,852.30268)"
       id="g3387">
      <path
         id="path3357"
         d="m 311.61399,135.86312 c 0.0625,-0.28125 0.3125,-1.28125 1.07812,-1.28125 0.0625,0 0.3125,0 0.54688,0.14063 -0.29688,0.0469 -0.51563,0.32812 -0.51563,0.59375 0,0.17187 0.10938,0.375 0.40625,0.375 0.25,0 0.59375,-0.20313 0.59375,-0.625 0,-0.57813 -0.64062,-0.73438 -1.01562,-0.73438 -0.64063,0 -1.01563,0.57813 -1.14063,0.84375 -0.28125,-0.73437 -0.875,-0.84375 -1.1875,-0.84375 -1.125,0 -1.75,1.42188 -1.75,1.6875 0,0.10938 0.10938,0.10938 0.125,0.10938 0.0937,0 0.125,-0.0156 0.14063,-0.125 0.375,-1.15625 1.09375,-1.42188 1.46875,-1.42188 0.20312,0 0.59375,0.0937 0.59375,0.73438 0,0.32812 -0.1875,1.0625 -0.59375,2.59375 -0.17188,0.67187 -0.5625,1.125 -1.03125,1.125 -0.0781,0 -0.32813,0 -0.54688,-0.14063 0.26563,-0.0469 0.5,-0.28125 0.5,-0.57812 0,-0.29688 -0.23437,-0.39063 -0.39062,-0.39063 -0.32813,0 -0.60938,0.28125 -0.60938,0.64063 0,0.5 0.54688,0.71875 1.03125,0.71875 0.71875,0 1.10938,-0.76563 1.14063,-0.82813 0.14062,0.39063 0.53125,0.82813 1.1875,0.82813 1.10937,0 1.73437,-1.40625 1.73437,-1.6875 0,-0.10938 -0.0937,-0.10938 -0.125,-0.10938 -0.0937,0 -0.125,0.0469 -0.14062,0.125 -0.35938,1.17188 -1.10938,1.42188 -1.45313,1.42188 -0.42187,0 -0.59375,-0.34375 -0.59375,-0.71875 0,-0.23438 0.0625,-0.46875 0.17188,-0.95313 l 0.375,-1.5 z m 0,0"
         style="fill:#000000;fill-opacity:1;stroke:none"
         inkscape:connector-curvature="0" />
      <path
         id="path3361"
         d="m 316.45499,139.17101 c 0.125,-0.125 0.45312,-0.39063 0.59375,-0.5 0.48437,-0.45313 0.95312,-0.89063 0.95312,-1.60938 0,-0.95312 -0.79687,-1.5625 -1.78125,-1.5625 -0.96875,0 -1.59375,0.71875 -1.59375,1.4375 0,0.39063 0.3125,0.4375 0.42188,0.4375 0.17187,0 0.42187,-0.10937 0.42187,-0.42187 0,-0.40625 -0.40625,-0.40625 -0.5,-0.40625 0.23438,-0.59375 0.76563,-0.78125 1.15625,-0.78125 0.73438,0 1.125,0.625 1.125,1.29687 0,0.82813 -0.57812,1.4375 -1.53125,2.39063 l -1,1.04687 c -0.0937,0.0781 -0.0937,0.0937 -0.0937,0.29688 l 3.14063,0 0.23437,-1.42188 -0.25,0 c -0.0156,0.15625 -0.0781,0.54688 -0.17187,0.70313 -0.0469,0.0625 -0.65625,0.0625 -0.78125,0.0625 l -1.42188,0 1.07813,-0.96875 z m 0,0"
         style="fill:#000000;fill-opacity:1;stroke:none"
         inkscape:connector-curvature="0" />
    </g>
  </g>
</svg>
